<svg xmlns:xlink="http://www.w3.org/1999/xlink" xmlns="http://www.w3.org/2000/svg" x="0px" y="0px" viewBox="0 0 1225 562" class="tcl-carousel-v2__range-path" preserveAspectRatio="xMidYMid slice" xml:space="preserve" width="1225"  height="562" >
        <path d="M257.3,476.5l-0.2-6.3l4.4-6.3l0.7-7.2l3.2-3.5l3.7-3.8l0.8-2.7l2.4-1.1l1.8-1l1.3-6.5l2-1.1l6.4,2.1c0,0,3.2,1.7,4.2-0.4c1.1-2.1,1.4-3,2-3.4s1.1-3.8,1.1-3.8l4.7-3.8l3.8-1.7c0,0,5.8-5,6.6-8.4c0,0,1.1-3,3.4-3.5s5.6-2.2,5.8-4.3c0.1-2.1-0.8-4.7-0.5-5.4c0.3-0.7,2-5.8,3.9-7c2-1.2,4.3-2.2,4.9-1.2c0.6,1.1,4.8-0.4,6-1.2c1.2-0.8,2.5-0.9,4.5-1.1c2-0.1,5.5-2.6,7.1-3.3c1.6-0.7,3.8-1.1,6.2-0.8s4.6,0.4,5.8-0.8c1.2-1.2,3.4-3.4,6-4.3c2.6-0.9,7.3-2.9,8.9-4.2c1.6-1.3,6.2-2.1,8.7-2.8c2.5-0.7,5.9-2.6,6.8-3.3c0.9-0.7,3.7-3.2,5.4-3.8c1.7-0.7,5.1-3.5,6.4-5.9s4.5-4.2,11.2-5.1c6.7-0.9,11.4-0.3,12.9-0.7s9.1-2.1,9.8-2.8c0.8-0.7,7.9-8.9,8.5-10.4c0.7-1.4,0.3-4.7,1.7-5.4s5.3-2.2,6.4-3.5c1.2-1.3,4.5-5.1,5.3-5.9c0.8-0.8,3-2.5,5.1-3.3c2.1-0.8,12.7-7.1,13.8-9.7c1.1-2.6,3-7,3.8-9.2c0.8-2.2,5.1-12.1,5.1-12.1s5.4-5.1,6.3-6.2c0.9-1.1,3.2-4,3.2-4s1.1-3.9,4-6.8c2.9-2.9,3.1-4.9,4.7-6.1c1.6-1.2,4.2-8.1,4.6-8.5l3.5-7.4l3.1-3.9l1.3-4.9l4.1-7c0,0,0.9-6.6-2-9.7c-2.9-3.1-0.5-6,1.7-7.4c2.2-1.3,9.2-3.2,11.4-3.7c2.2-0.5,5.6-6.3,6-6.7c0.4-0.4,6.4-3.3,6.4-3.3l3.8-3.2l7.9-2.3l5.8-5.8c0,0,5.8-0.8,6.8-0.8c1.1,0,2.2,1.7,4.1,0.1c1.8-1.6,12.7-7.4,12.7-7.4s7.1-4.6,8.9-8.2s8.5-5.8,9.4-6.5c0.9-0.7,4.6-6.1,6.6-10.3s4.6-9.2,5.4-9.7c0.8-0.5,4.5-4.7,5.2-5.8c0.8-1.1,6.4-13.3,7.1-14.2c0.7-0.9,3.5-7.7,6-9.1l1.3-0.8c0,0,3.6-2.1,5.3-2.7c1.7-0.7,6.4-2.2,8.8-2.8s5.8-2.5,7.2-3.7s6.4-3.4,8-4.1c1.6-0.7,13.3-5,15.1-5.3c1.8-0.3,9.9-2.9,12.9-4.8c0,0,7.6-0.7,8-0.7c0.4,0,3.7-1.3,3.7-1.3s8.3-0.7,10.5,0s2.8,0,5-1.3s5.8-3.8,5.8-4.2c0-0.4,3.3-4.7,3.3-4.7s5.9-2.1,9.5-3.6s6.1-1.1,6.7-2.4c0.6-1.3,1.7-2.6,3.5-3.1c1.8-0.5,6.4-2,7.9-2.9s4.2-0.9,6-0.8s6.8,0.8,8.7-0.7c1.9-1.4,7.8-3.8,8.7-4.1c0.9-0.3,5.9-1.3,5.9-1.3s6.7-2.6,8.3-2.6c1.6,0,8.5-2,8.5-2s9.1-0.8,10.1-0.8c1.1,0,4.2,2,5,2.4c0.8,0.4,8.8,1.2,9.9-2.5l3.5-3.3c0,0,1.2,0.4,1.5,0c0.3-0.4,2.4-3.3,2.4-3.3l3-5.5l0.5-3.8l-3.5-2.6" fill="none" stroke="#000000" style="stroke-dasharray: 794.698, 794.698; stroke-dashoffset: 26.59;" stroke-width="4px"></path>
        <g class="tooltip" transform="translate(819.7891845703125,68.3757553100586)">
          <circle fill="#231F20" cx="0" cy="0.8" r="4.4"></circle>
          <g>
            <rect x="-38.2" y="5.5" fill="#EC1C24" width="76.3" height="22.1"></rect>
            <rect x="-4.4" y="1.7" transform="matrix(0.7071 -0.7071 0.7071 0.7071 -4.3565 1.8045)" fill="#EC1C24" width="8.9" height="8.9"></rect>
          </g>
          <text text-anchor="middle" transform="matrix(1 0 0 1 0 21.2519)" fill="#FFFFFF" font-family="Gotham Bold" font-size="13px">203 Miles</text>
        </g>
      </svg>