<svg xmlns:xlink="http://www.w3.org/1999/xlink" xmlns="http://www.w3.org/2000/svg" viewBox="0 0 28 28" width="28"  height="28" ><defs><symbol id="tcl-badge-weather" data-name="Weather" viewBox="0 0 23.36 14.68" xmlns="http://www.w3.org/2000/svg">
    <path d="M17.51 9.8c.04.02.08.03.11.04.84.32 1.34.93 1.54 1.8.07.31.08.62.05.93-.01.07-.02.14-.04.21-.24.8-.73 1.38-1.51 1.7-.31.13-.64.18-.98.19H3.19c-.34 0-.68-.04-1-.15C1.45 14.3.9 13.84.51 13.2c-.23-.38-.37-.79-.45-1.22-.06-.36-.08-.71-.04-1.07.12-1.02.61-1.81 1.51-2.33.38-.22.8-.35 1.23-.42.17-.02.34-.03.5-.04.02 0 .03 0 .05-.01.02-.04.03-.08.03-.12a5.386 5.386 0 0 1 2.89-3.95c.56-.28 1.15-.47 1.77-.56.35-.06.71-.09 1.07-.08 1.09.02 2.1.31 3.02.9.79.52 1.4 1.2 1.87 2.02.03.05.06.11.09.16h.13c.39-.01.77.04 1.14.17.38.14.71.34 1 .62.16.16.32.32.46.5.36.45.6.95.69 1.52.02.12.02.25.03.37.01.05.01.09.01.14zM3.88 8.89c-.04 0-.08 0-.11.01h-.42c-.22 0-.44.01-.66.05a2.6 2.6 0 0 0-.82.25c-.41.2-.72.5-.94.9-.23.43-.36 1.15-.25 1.67.09.42.24.82.49 1.17.27.38.62.66 1.06.82.28.1.57.14.86.14h13.43c.09 0 .18-.01.27-.01.31-.03.58-.14.82-.34.39-.33.62-.76.68-1.27.06-.48-.08-.91-.39-1.28-.21-.25-.47-.43-.77-.56-.12-.06-.25-.11-.38-.16-.04-.02-.07-.03-.11-.05V9.7c0-.13-.01-.27-.03-.4-.08-.5-.29-.92-.66-1.26-.17-.15-.34-.28-.52-.42-.12-.09-.25-.17-.39-.23-.36-.17-.73-.24-1.13-.18-.1.01-.2.03-.3.04-.05.01-.1.02-.15 0-.06-.12-.12-.23-.17-.34-.13-.26-.27-.51-.44-.75a4.534 4.534 0 0 0-2.11-1.66c-.46-.18-.94-.28-1.43-.32-.42-.03-.84-.03-1.26.05-.35.07-.69.15-1.03.28a4.852 4.852 0 0 0-3.06 3.72c-.02.16-.04.32-.05.48-.01.06-.02.11-.03.18zM18.29 8.81c-.04-.14-.06-.27-.08-.39-.09-.73-.4-1.34-.93-1.84a3.048 3.048 0 0 0-2.21-.86h-.24c0-.04-.01-.08-.01-.12 0-.05-.01-.1-.04-.14l-.18-.3c-.1-.18-.2-.36-.32-.53-.01-.02-.03-.04-.04-.06-.06-.1-.06-.11-.02-.22.33-.98 1.14-1.76 2.14-2.07.42-.13.85-.18 1.28-.14 1.51.13 2.64 1.22 2.95 2.54.06.24.09.48.09.72.01.79-.25 1.49-.74 2.11-.33.41-.74.73-1.22.94-.06.03-.11.06-.15.11l-.21.21c-.02-.01-.04.01-.07.04zM20.72 2.82c-.1 0-.18-.02-.24-.07a1.19 1.19 0 0 1-.19-.2.255.255 0 0 1 0-.31l.1-.13.78-.78c.04-.04.09-.08.15-.12.09-.06.18-.06.28 0 .1.06.19.15.26.25.06.1.06.2-.01.3-.04.05-.08.1-.13.15l-.68.68c-.03.03-.06.06-.09.1-.06.1-.15.13-.23.13zM13.69 1.11c.06 0 .11.02.16.05.05.03.09.07.13.11l.77.77c.04.04.08.09.11.13.07.1.07.2.01.3-.07.12-.17.2-.3.25-.1.04-.19.03-.28-.03-.04-.02-.07-.05-.1-.08l-.78-.78a.789.789 0 0 1-.12-.15.244.244 0 0 1 0-.26c.07-.12.16-.21.28-.28l.12-.03zM21.25 7.03c.06 0 .1.02.15.05.05.04.11.08.15.13.25.27.5.54.74.81.02.03.04.05.06.08.06.1.06.2 0 .3-.01.02-.03.04-.05.07-.03.03-.05.07-.08.1-.09.11-.21.14-.33.07a.444.444 0 0 1-.11-.08c-.28-.27-.55-.55-.83-.83-.04-.04-.07-.09-.1-.14a.235.235 0 0 1 0-.23c.07-.12.17-.22.29-.29.02-.02.06-.02.11-.04zM22.49 5.43h-.51c-.16 0-.27-.08-.34-.22a.291.291 0 0 1 .03-.31c.08-.11.18-.17.32-.17H23c.14 0 .25.06.32.18.06.09.07.19.04.29-.04.14-.14.22-.29.24h-.11c-.16-.01-.32-.01-.47-.01zM17.93.88v.47c0 .07-.02.13-.07.18-.05.04-.1.09-.15.12-.1.06-.2.05-.3-.01a.365.365 0 0 1-.18-.31V.38c0-.16.08-.27.22-.35.1-.05.2-.05.29.02.04.03.08.07.12.11.06.07.09.14.09.23-.02.17-.02.33-.02.49z" fill="#171A20"></path>
  </symbol></defs>
      <use href="#tcl-badge-weather"></use>
    </svg>