<svg xmlns:xlink="http://www.w3.org/1999/xlink" xmlns="http://www.w3.org/2000/svg" viewBox="0 0 60 28" width="60"  height="28" ><defs><symbol id="tcl-badge-model-3-roof" data-name="Model 3 Roof" viewBox="0 0 51.62 23.87" xmlns="http://www.w3.org/2000/svg">
    <path fill="#171A20" d="M17.6 21.84c.03.06.04.09.06.13.27.52.48 1.07.64 1.64 0 .01.01.02.01.04.04.18 0 .22-.18.23-.31.01-.62-.02-.9-.16-.11-.05-.21-.13-.29-.21-.43-.48-.84-.98-1.21-1.51-.1-.14-.2-.19-.38-.18-.47.04-.94.05-1.41.09-.56.04-1.12.1-1.69.14-.75.06-1.51.12-2.26.16-.65.03-1.31.04-1.97.04-.94-.01-1.88-.09-2.79-.32-.37-.09-.74-.22-1.1-.35-.45-.17-.79-.49-1.11-.85-.59-.67-1.04-1.43-1.47-2.2-.4-.73-.74-1.48-1.04-2.26-.17-.44-.26-.89-.33-1.35-.14-.89-.2-1.78-.19-2.68.01-.72.02-1.45.07-2.17.05-.78.15-1.56.41-2.3.18-.52.41-1.02.64-1.52.42-.9.9-1.77 1.49-2.58.27-.36.55-.7.9-.99.42-.34.92-.51 1.43-.65.77-.21 1.56-.31 2.36-.36 1.15-.07 2.31-.02 3.46.06 1.02.07 2.03.17 3.05.24.53.04 1.07.06 1.6.1.13.01.21-.04.29-.15.33-.44.67-.88 1.01-1.32.15-.19.31-.39.56-.46.19-.06.39-.08.59-.11.12-.03.21-.03.31-.03.15 0 .2.06.16.2-.07.28-.15.55-.26.82-.12.31-.27.61-.4.91-.01.03-.03.06-.05.1.05 0 .09.01.13.01 1.82-.01 3.65-.02 5.47-.01 2.21.01 4.41.03 6.62.04 1.35.01 2.7.03 4.05 0 1.03-.02 2.06-.1 3.1-.15.96-.05 1.92-.16 2.89-.13.59.02 1.17.05 1.75.11.58.05 1.16.11 1.74.2 1.42.21 2.79.59 4.09 1.2.14.06.27.13.41.19.12.05.19.13.23.25.21.58.5 1.12.88 1.61.3.38.62.73 1.02 1.02.4.29.63.7.82 1.14.31.72.48 1.48.62 2.24.15.84.22 1.69.19 2.55-.04 1.32-.26 2.62-.72 3.86-.14.39-.32.78-.61 1.09-.13.15-.29.27-.44.39-.81.68-1.4 1.51-1.76 2.5-.05.13-.13.21-.25.28-1.22.61-2.5 1.02-3.84 1.27-.82.16-1.64.26-2.47.32-.71.06-1.41.11-2.12.09-.74-.03-1.48-.08-2.23-.12-.67-.04-1.34-.09-2.01-.12-2.37-.12-4.74-.04-7.12-.03l-4.61.03c-1.65.01-3.3.01-4.94.01-.24 0-.48-.01-.73-.02-.06-.01-.1-.01-.17-.01zm21.53-.69h.81c1.14-.02 2.27-.13 3.39-.31 1.3-.21 2.56-.56 3.76-1.12.13-.06.21-.14.27-.28a6.596 6.596 0 0 1 1.92-2.57c.32-.26.55-.56.7-.94.44-1.11.63-2.26.71-3.44.06-.97-.04-1.93-.22-2.88-.13-.61-.28-1.23-.54-1.81-.12-.26-.24-.5-.47-.69-.28-.23-.55-.47-.8-.73a6.35 6.35 0 0 1-1.32-2.03.336.336 0 0 0-.18-.19c-.54-.25-1.1-.47-1.67-.65-.9-.28-1.83-.47-2.77-.59-1.02-.13-2.04-.21-3.06-.22-1-.01-2 .08-3 .16-1.08.08-2.15.13-3.22.14-1.61 0-3.21-.01-4.82-.02-1.75-.01-3.5-.03-5.25-.04-1.7-.01-3.41 0-5.11.01-.76 0-1.52.03-2.28.04-.91.01-1.81-.07-2.71-.15-.8-.07-1.59-.13-2.39-.18-1.03-.07-2.07-.13-3.11-.1-.84.03-1.68.11-2.5.33-.34.09-.69.19-1 .38-.34.2-.59.5-.82.81-.5.66-.91 1.37-1.28 2.11-.29.58-.58 1.17-.79 1.79-.27.81-.37 1.65-.42 2.49-.07 1.2-.08 2.4.05 3.59.08.73.19 1.45.48 2.13.22.51.45 1.02.7 1.52.39.78.82 1.53 1.37 2.21.24.3.49.59.85.75.25.11.51.19.77.27.84.26 1.71.34 2.58.35 1.9.04 3.78-.11 5.67-.29.79-.07 1.59-.14 2.39-.14.97.01 1.94.05 2.91.06 1.11.01 2.21 0 3.32 0 1.66-.01 3.31-.02 4.97-.04.78-.01 1.56-.02 2.33-.02 1.84-.01 3.67-.04 5.51.04.62.02 1.23.06 1.85.1.83.05 1.65.1 2.42.15z"></path>
    <path fill="#171A20" d="M33.07 5.18c.18 0 .35-.01.52 0l1.72.09c1.08.06 2.16.11 3.24.17 1.35.08 2.69.16 4.04.25 1 .07 2 .17 3 .26.59.06 1.16.2 1.67.52.62.38 1.06.92 1.37 1.57.35.71.54 1.47.64 2.25.11.81.13 1.62.07 2.43-.07 1.03-.28 2.02-.75 2.95-.12.24-.29.44-.46.64-.17.2-.36.4-.52.61-.23.31-.54.5-.89.64-.41.17-.83.26-1.26.3-.98.09-1.95.17-2.93.25-.86.06-1.72.11-2.57.17-.91.05-1.83.1-2.75.16-1.1.06-2.2.12-3.3.19-.28.02-.55.03-.84.04V5.18zM12.94 18.95c-.02-.06-.03-.11-.05-.17-.36-.99-.59-2.02-.73-3.07-.23-1.7-.29-3.41-.22-5.13.06-1.37.2-2.73.53-4.06.12-.5.29-.98.44-1.47.01-.04.02-.08.04-.12h-.33c-.62.03-1.22.04-1.82.08-.61.03-1.22.09-1.83.14-1.57.13-3.09.51-4.6.94-.33.09-.66.19-.99.29-.03.01-.06.01-.1.02 0-.01-.01-.02-.01-.03.15-.09.3-.19.45-.28.66-.37 1.38-.64 2.1-.88 1.03-.34 2.08-.6 3.14-.81.91-.17 1.83-.28 2.75-.36.71-.06 1.43-.11 2.14-.09.81.02 1.61.04 2.42.08a95.515 95.515 0 0 1 4.79.36c.38.03.76.07 1.14.11.05 0 .09.02.13.02-.94 4.93-1.04 9.86 0 14.8-.11.01-.23.03-.35.05-.6.07-1.21.15-1.81.21-.8.08-1.6.16-2.41.22-.53.04-1.06.07-1.58.08-.79.02-1.58.01-2.37.04-.81.04-1.6-.04-2.4-.12-.69-.07-1.38-.15-2.07-.26-.87-.13-1.73-.35-2.57-.59-.91-.26-1.82-.56-2.67-.97-.25-.12-.48-.27-.72-.41a.179.179 0 0 1-.09-.1c.12.03.24.07.36.1 1 .3 2 .57 3.02.79.83.18 1.68.31 2.53.39 1.13.11 2.26.15 3.39.18.1.02.21.02.35.02zM32.03 5.1v13.62l-.47.03c-.76.05-1.52.09-2.28.14-.91.06-1.82.11-2.73.17-.7.04-1.39.09-2.09.13-.29.02-.58.03-.88.06-.07.01-.1-.01-.12-.09-.27-1.17-.47-2.35-.6-3.54-.18-1.59-.23-3.18-.18-4.78.04-1.44.17-2.88.42-4.3.11-.62.25-1.24.37-1.86.01-.07.05-.08.1-.07.39.03.77.05 1.16.07.79.05 1.58.1 2.37.14.49.03.97.06 1.46.08.94.05 1.88.11 2.82.16.21.03.42.03.65.04z"></path>
  </symbol></defs>
      <use href="#tcl-badge-model-3-roof"></use>
    </svg>