<svg xmlns="http://www.w3.org/2000/svg" xmlns:xlink="http://www.w3.org/1999/xlink" width="24"  height="24" >
  <symbol id="tds-icon-accessibility" viewBox="0 0 24 24" xmlns="http://www.w3.org/2000/svg">
    <path d="M12 2C6.477 2 2 6.477 2 12s4.477 10 10 10 10-4.477 10-10S17.523 2 12 2zm0 18.5c-4.687 0-8.5-3.813-8.5-8.5 0-4.687 3.813-8.5 8.5-8.5 4.687 0 8.5 3.813 8.5 8.5 0 4.687-3.813 8.5-8.5 8.5zm-1.5-13a1.5 1.5 0 1 1 3 0 1.5 1.5 0 0 1-3 0zm6.485 2.104a.75.75 0 0 1-.589.882l-3.185.632a.257.257 0 0 0-.207.257 7.463 7.463 0 0 0 .69 2.907l1.236 2.652a.75.75 0 1 1-1.36.632l-1.235-2.65a8.814 8.814 0 0 1-.335-.835 8.808 8.808 0 0 1-.335.836l-1.235 2.65a.749.749 0 1 1-1.36-.633l1.236-2.65c.423-.908.66-1.908.69-2.91a.257.257 0 0 0-.207-.256l-3.185-.632a.75.75 0 1 1 .292-1.472l2.643.525a7.5 7.5 0 0 0 2.922 0l2.643-.525a.75.75 0 0 1 .881.59z" fill="#393C41"></path>
  </symbol>
  <symbol id="tds-icon-accessibility--filled" viewBox="0 0 24 24" xmlns="http://www.w3.org/2000/svg">
    <path d="M12 2C6.477 2 2 6.477 2 12s4.477 10 10 10 10-4.477 10-10S17.523 2 12 2Zm-1.5 5.5a1.5 1.5 0 1 1 3 0 1.5 1.5 0 0 1-3 0Zm6.485 2.104a.75.75 0 0 1-.588.882l-3.186.632a.257.257 0 0 0-.207.257 7.465 7.465 0 0 0 .69 2.907l1.236 2.652a.75.75 0 1 1-1.36.632l-1.235-2.65a8.82 8.82 0 0 1-.335-.835 8.797 8.797 0 0 1-.335.836l-1.235 2.65a.749.749 0 1 1-1.36-.633l1.236-2.65c.423-.908.66-1.908.69-2.91a.257.257 0 0 0-.207-.256l-3.185-.632a.75.75 0 1 1 .292-1.472l2.643.525a7.5 7.5 0 0 0 2.922 0l2.643-.525a.75.75 0 0 1 .881.59Z" fill="#393C41"></path>
  </symbol>
  <symbol id="tds-icon-arrow" viewBox="0 0 24 24" xmlns="http://www.w3.org/2000/svg">
    <path d="M18.78 10.53a.747.747 0 0 1-1.06 0l-4.974-4.97.004 14.69a.75.75 0 0 1-1.5 0l-.004-14.69L6.28 10.52a.75.75 0 1 1-1.06-1.06l6.246-6.241a.75.75 0 0 1 1.06 0l6.254 6.25a.75.75 0 0 1 0 1.06z" transform="rotate(0 12 12)" fill="#393C41"></path>
  </symbol>
  <symbol id="tds-icon-arrow--filled" viewBox="0 0 24 24" xmlns="http://www.w3.org/2000/svg">
    <path d="M12 21a1 1 0 0 0 1-1V6.414l4.293 4.293a1 1 0 0 0 1.414-1.414l-6-6a1 1 0 0 0-1.414 0l-6 6a1 1 0 1 0 1.414 1.414L11 6.414V20a1 1 0 0 0 1 1z" transform="rotate(0 12 12)" fill="#393C41"></path>
  </symbol>
  <symbol id="tds-icon-arrow--filled--0" viewBox="0 0 24 24" xmlns="http://www.w3.org/2000/svg">
    <path d="M12 21a1 1 0 0 0 1-1V6.414l4.293 4.293a1 1 0 0 0 1.414-1.414l-6-6a1 1 0 0 0-1.414 0l-6 6a1 1 0 1 0 1.414 1.414L11 6.414V20a1 1 0 0 0 1 1z" transform="rotate(0 12 12)" fill="#393C41"></path>
  </symbol>
  <symbol id="tds-icon-arrow--filled--90" viewBox="0 0 24 24" xmlns="http://www.w3.org/2000/svg">
    <path d="M12 21a1 1 0 0 0 1-1V6.414l4.293 4.293a1 1 0 0 0 1.414-1.414l-6-6a1 1 0 0 0-1.414 0l-6 6a1 1 0 1 0 1.414 1.414L11 6.414V20a1 1 0 0 0 1 1z" transform="rotate(90 12 12)" fill="#393C41"></path>
  </symbol>
  <symbol id="tds-icon-arrow--filled--180" viewBox="0 0 24 24" xmlns="http://www.w3.org/2000/svg">
    <path d="M12 21a1 1 0 0 0 1-1V6.414l4.293 4.293a1 1 0 0 0 1.414-1.414l-6-6a1 1 0 0 0-1.414 0l-6 6a1 1 0 1 0 1.414 1.414L11 6.414V20a1 1 0 0 0 1 1z" transform="rotate(180 12 12)" fill="#393C41"></path>
  </symbol>
  <symbol id="tds-icon-arrow--filled--270" viewBox="0 0 24 24" xmlns="http://www.w3.org/2000/svg">
    <path d="M12 21a1 1 0 0 0 1-1V6.414l4.293 4.293a1 1 0 0 0 1.414-1.414l-6-6a1 1 0 0 0-1.414 0l-6 6a1 1 0 1 0 1.414 1.414L11 6.414V20a1 1 0 0 0 1 1z" transform="rotate(270 12 12)" fill="#393C41"></path>
  </symbol>
  <symbol id="tds-icon-arrow--0" viewBox="0 0 24 24" xmlns="http://www.w3.org/2000/svg">
    <path d="M18.78 10.53a.747.747 0 0 1-1.06 0l-4.974-4.97.004 14.69a.75.75 0 0 1-1.5 0l-.004-14.69L6.28 10.52a.75.75 0 1 1-1.06-1.06l6.246-6.241a.75.75 0 0 1 1.06 0l6.254 6.25a.75.75 0 0 1 0 1.06z" transform="rotate(0 12 12)" fill="#393C41"></path>
  </symbol>
  <symbol id="tds-icon-arrow--90" viewBox="0 0 24 24" xmlns="http://www.w3.org/2000/svg">
    <path d="M18.78 10.53a.747.747 0 0 1-1.06 0l-4.974-4.97.004 14.69a.75.75 0 0 1-1.5 0l-.004-14.69L6.28 10.52a.75.75 0 1 1-1.06-1.06l6.246-6.241a.75.75 0 0 1 1.06 0l6.254 6.25a.75.75 0 0 1 0 1.06z" transform="rotate(90 12 12)" fill="#393C41"></path>
  </symbol>
  <symbol id="tds-icon-arrow--180" viewBox="0 0 24 24" xmlns="http://www.w3.org/2000/svg">
    <path d="M18.78 10.53a.747.747 0 0 1-1.06 0l-4.974-4.97.004 14.69a.75.75 0 0 1-1.5 0l-.004-14.69L6.28 10.52a.75.75 0 1 1-1.06-1.06l6.246-6.241a.75.75 0 0 1 1.06 0l6.254 6.25a.75.75 0 0 1 0 1.06z" transform="rotate(180 12 12)" fill="#393C41"></path>
  </symbol>
  <symbol id="tds-icon-arrow--270" viewBox="0 0 24 24" xmlns="http://www.w3.org/2000/svg">
    <path d="M18.78 10.53a.747.747 0 0 1-1.06 0l-4.974-4.97.004 14.69a.75.75 0 0 1-1.5 0l-.004-14.69L6.28 10.52a.75.75 0 1 1-1.06-1.06l6.246-6.241a.75.75 0 0 1 1.06 0l6.254 6.25a.75.75 0 0 1 0 1.06z" transform="rotate(270 12 12)" fill="#393C41"></path>
  </symbol>
  <symbol id="tds-icon-arrow-small" viewBox="0 0 16 16" xmlns="http://www.w3.org/2000/svg">
    <path d="M12.78 7.53a.747.747 0 0 1-1.06 0L8.747 4.56l.003 8.69a.75.75 0 0 1-1.5 0l-.003-8.69L4.28 7.523a.75.75 0 1 1-1.06-1.06L7.467 2.22a.75.75 0 0 1 1.06 0l4.253 4.25a.75.75 0 0 1 0 1.06z" transform="rotate(0 8 8)" fill="#393C41"></path>
  </symbol>
  <symbol id="tds-icon-arrow-small--0" viewBox="0 0 16 16" xmlns="http://www.w3.org/2000/svg">
    <path d="M12.78 7.53a.747.747 0 0 1-1.06 0L8.747 4.56l.003 8.69a.75.75 0 0 1-1.5 0l-.003-8.69L4.28 7.523a.75.75 0 1 1-1.06-1.06L7.467 2.22a.75.75 0 0 1 1.06 0l4.253 4.25a.75.75 0 0 1 0 1.06z" transform="rotate(0 8 8)" fill="#393C41"></path>
  </symbol>
  <symbol id="tds-icon-arrow-small--90" viewBox="0 0 16 16" xmlns="http://www.w3.org/2000/svg">
    <path d="M12.78 7.53a.747.747 0 0 1-1.06 0L8.747 4.56l.003 8.69a.75.75 0 0 1-1.5 0l-.003-8.69L4.28 7.523a.75.75 0 1 1-1.06-1.06L7.467 2.22a.75.75 0 0 1 1.06 0l4.253 4.25a.75.75 0 0 1 0 1.06z" transform="rotate(90 8 8)" fill="#393C41"></path>
  </symbol>
  <symbol id="tds-icon-arrow-small--180" viewBox="0 0 16 16" xmlns="http://www.w3.org/2000/svg">
    <path d="M12.78 7.53a.747.747 0 0 1-1.06 0L8.747 4.56l.003 8.69a.75.75 0 0 1-1.5 0l-.003-8.69L4.28 7.523a.75.75 0 1 1-1.06-1.06L7.467 2.22a.75.75 0 0 1 1.06 0l4.253 4.25a.75.75 0 0 1 0 1.06z" transform="rotate(180 8 8)" fill="#393C41"></path>
  </symbol>
  <symbol id="tds-icon-arrow-small--270" viewBox="0 0 16 16" xmlns="http://www.w3.org/2000/svg">
    <path d="M12.78 7.53a.747.747 0 0 1-1.06 0L8.747 4.56l.003 8.69a.75.75 0 0 1-1.5 0l-.003-8.69L4.28 7.523a.75.75 0 1 1-1.06-1.06L7.467 2.22a.75.75 0 0 1 1.06 0l4.253 4.25a.75.75 0 0 1 0 1.06z" transform="rotate(270 8 8)" fill="#393C41"></path>
  </symbol>
  <symbol id="tds-icon-bell" viewBox="0 0 24 24" xmlns="http://www.w3.org/2000/svg">
    <path d="m20.7 17.375-.823-1.03A4 4 0 0 1 19 13.848V9A7 7 0 1 0 5 9v4.847a4 4 0 0 1-.877 2.499l-.823 1.03A1 1 0 0 0 4.08 19h5.17v.25a2.75 2.75 0 1 0 5.5 0V19h5.17a1 1 0 0 0 .78-1.625zm-7.45 1.875a1.25 1.25 0 1 1-2.5 0V19h2.5v.25zM5.12 17.5l.175-.217A5.5 5.5 0 0 0 6.5 13.847V9a5.5 5.5 0 1 1 11 0v4.847a5.5 5.5 0 0 0 1.205 3.436l.174.217H5.121z" fill="#393C41"></path>
  </symbol>
  <symbol id="tds-icon-bell--filled" viewBox="0 0 24 24" xmlns="http://www.w3.org/2000/svg">
    <path d="M5 9a7 7 0 1 1 14 0v4.847a4 4 0 0 0 .877 2.499l.823 1.03A1 1 0 0 1 19.92 19H4.08a1 1 0 0 1-.78-1.625l.823-1.03A4 4 0 0 0 5 13.848V9Zm9 11.222c0 .982-.895 1.778-2 1.778s-2-.796-2-1.778c0-.123.1-.222.222-.222h3.556c.122 0 .222.1.222.222Z" fill="#393C41"></path>
  </symbol>
  <symbol id="tds-icon-bolt" viewBox="0 0 24 24" xmlns="http://www.w3.org/2000/svg">
    <path d="M18.566 9.5H13.75a.25.25 0 0 1-.25-.25V2.437A.433.433 0 0 0 13.06 2a.422.422 0 0 0-.357.194L5.018 13.723a.5.5 0 0 0 .416.777h4.816a.25.25 0 0 1 .25.25v6.813c0 .27.218.436.44.436.133 0 .267-.06.357-.194l7.685-11.528a.5.5 0 0 0-.416-.777zM12 18.046V13.5a.5.5 0 0 0-.5-.5H7.303L12 5.954V10.5a.5.5 0 0 0 .5.5h4.197L12 18.046z" fill="#393C41"></path>
  </symbol>
  <symbol id="tds-icon-bolt--filled" viewBox="0 0 24 24" xmlns="http://www.w3.org/2000/svg">
    <path d="m18.982 10.277-7.685 11.528a.422.422 0 0 1-.357.194.433.433 0 0 1-.44-.436V14.75a.25.25 0 0 0-.25-.25H5.434a.5.5 0 0 1-.416-.777l7.685-11.528a.422.422 0 0 1 .357-.194c.222 0 .44.167.44.436V9.25c0 .138.112.25.25.25h4.816a.5.5 0 0 1 .416.777z" fill="#393C41"></path>
  </symbol>
  <symbol id="tds-icon-calendar" viewBox="0 0 24 24" xmlns="http://www.w3.org/2000/svg">
    <path d="M18.5 3h-13A2.5 2.5 0 0 0 3 5.5v13A2.5 2.5 0 0 0 5.5 21h13a2.5 2.5 0 0 0 2.5-2.5v-13A2.5 2.5 0 0 0 18.5 3zm-13 1.5h13c.551 0 1 .449 1 1v2.211a2.487 2.487 0 0 0-1-.211h-13c-.356 0-.693.077-1 .211V5.5c0-.551.449-1 1-1zm14 14c0 .551-.449 1-1 1h-13c-.551 0-1-.449-1-1V10c0-.551.449-1 1-1h13c.551 0 1 .449 1 1v8.5zM9 12a1 1 0 1 1-2 0 1 1 0 0 1 2 0zm4 0a1 1 0 1 1-2 0 1 1 0 0 1 2 0zm4 0a1 1 0 1 1-2 0 1 1 0 0 1 2 0zm-8 4.5a1 1 0 1 1-2 0 1 1 0 0 1 2 0zm4 0a1 1 0 1 1-2 0 1 1 0 0 1 2 0z" fill="#393C41"></path>
  </symbol>
  <symbol id="tds-icon-calendar--filled" viewBox="0 0 24 24" xmlns="http://www.w3.org/2000/svg">
    <path d="M5.5 3h13A2.5 2.5 0 0 1 21 5.5v13a2.5 2.5 0 0 1-2.5 2.5h-13A2.5 2.5 0 0 1 3 18.5v-13A2.5 2.5 0 0 1 5.5 3Zm13 16.5c.551 0 1-.449 1-1V10c0-.551-.449-1-1-1h-13c-.551 0-1 .449-1 1v8.5c0 .551.449 1 1 1zm-5.5-3a1 1 0 1 1-2 0 1 1 0 0 1 2 0zm-5 1a1 1 0 1 0 0-2 1 1 0 0 0 0 2zm9-5.5a1 1 0 1 1-2 0 1 1 0 0 1 2 0zm-5 1a1 1 0 1 0 0-2 1 1 0 0 0 0 2zm-3-1a1 1 0 1 1-2 0 1 1 0 0 1 2 0z" fill="#393C41"></path>
  </symbol>
  <symbol id="tds-icon-calendar--add" viewBox="0 0 24 24" xmlns="http://www.w3.org/2000/svg">
    <path d="M9 12a1 1 0 1 1-2 0 1 1 0 0 1 2 0zm3-1a1 1 0 1 0 0 2 1 1 0 0 0 0-2zm3 1a1 1 0 1 0 2 0 1 1 0 0 0-2 0zm-7 3.5a1 1 0 1 0 0 2 1 1 0 0 0 0-2zm4 0a1 1 0 1 0 0 2 1 1 0 0 0 0-2zM22 18a4 4 0 1 1-8 0 4 4 0 0 1 8 0zm-2 0a.5.5 0 0 0-.5-.5h-1v-1a.5.5 0 1 0-1 0v1h-1a.5.5 0 1 0 0 1h1v1a.5.5 0 1 0 1 0v-1h1a.5.5 0 0 0 .5-.5zm-7 2.25a.75.75 0 0 1-.75.75H5.5A2.5 2.5 0 0 1 3 18.5v-13A2.5 2.5 0 0 1 5.5 3h13A2.5 2.5 0 0 1 21 5.5v6.75a.75.75 0 1 1-1.5 0V10a1 1 0 0 0-1-1h-13a1 1 0 0 0-1 1v8.5a1 1 0 0 0 1 1h6.75a.75.75 0 0 1 .75.75zM4.5 7.711a2.486 2.486 0 0 1 1-.211h13c.356 0 .693.077 1 .211V5.5c0-.551-.449-1-1-1h-13c-.551 0-1 .449-1 1v2.211z" fill="#393C41"></path>
  </symbol>
  <symbol id="tds-icon-calendar--filled--add" viewBox="0 0 24 24" xmlns="http://www.w3.org/2000/svg">
    <path fill="#393C41" d="M18 14a4 4 0 1 0 0 8 4 4 0 0 0 0-8zm1.5 4.5h-1v1a.5.5 0 1 1-1 0v-1h-1a.5.5 0 1 1 0-1h1v-1a.5.5 0 1 1 1 0v1h1a.5.5 0 1 1 0 1zm-6.5-2a1 1 0 1 1-2 0 1 1 0 0 1 2 0zm-5 1a1 1 0 1 0 0-2 1 1 0 0 0 0 2zm9-5.5a1 1 0 1 1-2 0 1 1 0 0 1 2 0zm-5 1a1 1 0 1 0 0-2 1 1 0 0 0 0 2zm-4 0a1 1 0 1 0 0-2 1 1 0 0 0 0 2zm-2.5 6.5h6.75a.75.75 0 0 1 0 1.5H5.5A2.5 2.5 0 0 1 3 18.5v-13A2.5 2.5 0 0 1 5.5 3h13A2.5 2.5 0 0 1 21 5.5v6.75a.75.75 0 0 1-1.5 0V10a1 1 0 0 0-1-1h-13a1 1 0 0 0-1 1v8.5a1 1 0 0 0 1 1z"></path>
  </symbol>
  <symbol id="tds-icon-camera" viewBox="0 0 24 24" xmlns="http://www.w3.org/2000/svg">
    <path d="M19.5 6.5h-2.445a1 1 0 0 1-.809-.412l-.92-1.264A2 2 0 0 0 13.71 4h-3.42a2 2 0 0 0-1.617.824l-.92 1.264a1 1 0 0 1-.809.412H4.5A2.5 2.5 0 0 0 2 9v7.5A2.5 2.5 0 0 0 4.5 19h15a2.5 2.5 0 0 0 2.5-2.5V9a2.5 2.5 0 0 0-2.5-2.5zm1 10c0 .551-.449 1-1 1h-15c-.551 0-1-.449-1-1V9c0-.551.449-1 1-1h2.445c.797 0 1.553-.385 2.022-1.03l.92-1.264a.502.502 0 0 1 .404-.206h3.418a.5.5 0 0 1 .404.206l.92 1.264A2.507 2.507 0 0 0 17.055 8H19.5c.551 0 1 .449 1 1v7.5zM12 8a4 4 0 1 0 0 8 4 4 0 0 0 0-8zm0 6.5A2.503 2.503 0 0 1 9.5 12c0-1.379 1.122-2.5 2.5-2.5s2.5 1.121 2.5 2.5c0 1.378-1.122 2.5-2.5 2.5z" fill="#393C41"></path>
  </symbol>
  <symbol id="tds-icon-camera--filled" viewBox="0 0 24 24" xmlns="http://www.w3.org/2000/svg">
    <path d="M15 12a3 3 0 0 1-3 3 3 3 0 0 1-3-3 3 3 0 0 1 3-3 3 3 0 0 1 3 3zm4.5-5.5h-2.445a1 1 0 0 1-.81-.412l-.919-1.264A2 2 0 0 0 13.71 4h-3.42a2 2 0 0 0-1.617.824l-.92 1.264a1 1 0 0 1-.809.412H4.5A2.5 2.5 0 0 0 2 9v7.5A2.5 2.5 0 0 0 4.5 19h15a2.5 2.5 0 0 0 2.5-2.5V9a2.5 2.5 0 0 0-2.5-2.5Zm-7.5 10a4.5 4.5 0 1 1 0-9 4.5 4.5 0 0 1 0 9z" fill="#393C41"></path>
  </symbol>
  <symbol id="tds-icon-cart" viewBox="0 0 24 24" xmlns="http://www.w3.org/2000/svg">
    <path d="M19.244 5.006 5.98 5.008l-.067-.487A1.755 1.755 0 0 0 4.18 3.008H2.753a.75.75 0 0 0 0 1.5H4.18a.25.25 0 0 1 .247.217l.09.283h-.022l1.234 9L5.91 15.5c.12.86.864 1.51 1.734 1.51h11.609a.75.75 0 0 0 0-1.5H7.643a.25.25 0 0 1-.247-.216l-.179-1.286h11.046a2 2 0 0 0 1.985-1.752l.733-5.26a1.753 1.753 0 0 0-1.737-1.99zm-.484 7.064a.5.5 0 0 1-.497.438H7.037l-.823-6 13.03-.002c.095 0 .156.047.19.087.035.04.073.106.061.196l-.735 5.28zM20 19.5a1.5 1.5 0 1 1-3 0 1.5 1.5 0 0 1 3 0zm-11 0a1.5 1.5 0 1 1-3 0 1.5 1.5 0 0 1 3 0z" fill="#393C41"></path>
  </symbol>
  <symbol id="tds-icon-cart--filled" viewBox="0 0 24 24" xmlns="http://www.w3.org/2000/svg">
    <path d="M20.564 5.606a1.747 1.747 0 0 0-1.32-.6L5.98 5.008l-.067-.487A1.755 1.755 0 0 0 4.18 3.008H2.753a.75.75 0 0 0 0 1.5H4.18a.25.25 0 0 1 .247.216l.74 5.386a.415.415 0 0 0 .03.099.97.97 0 0 1 .016.041l.373 2.718a.667.667 0 0 1-.005.049c-.004.03-.008.062-.004.094L5.91 15.5c.12.86.864 1.51 1.734 1.51h11.609a.75.75 0 0 0 0-1.5H7.643a.25.25 0 0 1-.247-.216l-.179-1.286h11.046a1.999 1.999 0 0 0 1.985-1.752l.733-5.26a1.746 1.746 0 0 0-.417-1.39ZM18.5 21a1.5 1.5 0 1 0 0-3 1.5 1.5 0 0 0 0 3ZM9 19.5a1.5 1.5 0 1 1-3 0 1.5 1.5 0 0 1 3 0Z" fill="#393C41"></path>
  </symbol>
  <symbol id="tds-icon-cc" viewBox="0 0 24 24" xmlns="http://www.w3.org/2000/svg">
    <path d="m10.629 13.183.783.792c-.592.632-1.271 1.031-2.383 1.031-1.71 0-2.982-1.319-2.982-2.99V12c0-1.663 1.248-3.006 3.031-3.006 1.104 0 1.742.368 2.295.895l-.783.903c-.457-.415-.912-.67-1.52-.67-1.008 0-1.736.838-1.736 1.862V12c0 1.024.713 1.88 1.736 1.88.68 0 1.096-.273 1.559-.697zm4.48.696c-1.023 0-1.734-.855-1.734-1.879v-.016c0-1.024.729-1.862 1.734-1.862.608 0 1.065.255 1.52.67l.783-.903c-.55-.527-1.191-.895-2.295-.895-1.781 0-3.03 1.343-3.03 3.006v.016c0 1.671 1.272 2.99 2.983 2.99 1.112 0 1.791-.4 2.383-1.03l-.783-.793c-.465.424-.88.696-1.56.696zM22 6.5v11a2.5 2.5 0 0 1-2.5 2.5h-15A2.5 2.5 0 0 1 2 17.5v-11A2.5 2.5 0 0 1 4.5 4h15A2.5 2.5 0 0 1 22 6.5zm-1.5 0c0-.551-.449-1-1-1h-15c-.551 0-1 .449-1 1v11c0 .551.449 1 1 1h15c.551 0 1-.449 1-1v-11z" fill="#393C41"></path>
  </symbol>
  <symbol id="tds-icon-cc--filled" viewBox="0 0 24 24" xmlns="http://www.w3.org/2000/svg">
    <path d="M19.5 4h-15A2.5 2.5 0 0 0 2 6.5v11A2.5 2.5 0 0 0 4.5 20h15a2.5 2.5 0 0 0 2.5-2.5v-11A2.5 2.5 0 0 0 19.5 4zM9.03 15.006c-1.712 0-2.983-1.319-2.983-2.99V12c0-1.663 1.248-3.006 3.031-3.006 1.104 0 1.742.368 2.295.895l-.783.903c-.457-.415-.912-.67-1.52-.67-1.007 0-1.736.838-1.736 1.862V12c0 1.024.713 1.88 1.736 1.88.68 0 1.096-.273 1.559-.697l.783.792c-.592.632-1.271 1.031-2.383 1.031zm6.04 0c-1.71 0-2.982-1.319-2.982-2.99V12c0-1.663 1.248-3.006 3.03-3.006 1.103 0 1.743.368 2.294.895l-.783.903c-.455-.415-.912-.67-1.52-.67-1.005 0-1.734.838-1.734 1.862V12c0 1.024.71 1.88 1.734 1.88.68 0 1.096-.273 1.56-.697l.784.792c-.592.632-1.271 1.031-2.383 1.031z" fill="#393C41"></path>
  </symbol>
  <symbol id="tds-icon-check" viewBox="0 0 24 24" xmlns="http://www.w3.org/2000/svg">
    <path d="m19.78 7.648-9.263 9.264a.748.748 0 0 1-1.06 0L4.22 11.676a.75.75 0 1 1 1.06-1.06l4.706 4.705 8.734-8.733a.75.75 0 1 1 1.06 1.06z" fill="#393C41"></path>
  </symbol>
  <symbol id="tds-icon-check--filled" viewBox="0 0 24 24" xmlns="http://www.w3.org/2000/svg">
    <path d="M19.707 6.668a1 1 0 0 1 0 1.414l-9 9a1 1 0 0 1-1.414 0l-5-5a1 1 0 1 1 1.414-1.414L10 14.96l8.293-8.293a1 1 0 0 1 1.414 0z" fill="#393C41"></path>
  </symbol>
  <symbol id="tds-icon-check-small" viewBox="0 0 16 16" xmlns="http://www.w3.org/2000/svg">
    <path d="M6.592 11.58a.748.748 0 0 1-.53-.22L3.22 8.517a.75.75 0 1 1 1.06-1.061l2.312 2.312L11.72 4.64a.75.75 0 1 1 1.06 1.06l-5.658 5.66a.748.748 0 0 1-.53.22z" fill="#393C41"></path>
  </symbol>
  <symbol id="tds-icon-chevron" viewBox="0 0 24 24" xmlns="http://www.w3.org/2000/svg">
    <path d="m19.78 15.057-7.232-7.213a.75.75 0 0 0-1.06 0l-7.268 7.25a.75.75 0 0 0 1.06 1.062l6.739-6.721 6.701 6.684a.75.75 0 0 0 1.06-1.062z" transform="rotate(0 12 12)" fill="#393C41"></path>
  </symbol>
  <symbol id="tds-icon-chevron--filled" viewBox="0 0 24 24" xmlns="http://www.w3.org/2000/svg">
    <path d="M4.293 16.317a1 1 0 0 0 1.414 0L12 10.025l6.293 6.293a1 1 0 1 0 1.414-1.414l-7-7a1 1 0 0 0-1.414 0l-7 7a1 1 0 0 0 0 1.414z" transform="rotate(0 12 12)" fill="#393C41"></path>
  </symbol>
  <symbol id="tds-icon-chevron--filled--0" viewBox="0 0 24 24" xmlns="http://www.w3.org/2000/svg">
    <path d="M4.293 16.317a1 1 0 0 0 1.414 0L12 10.025l6.293 6.293a1 1 0 1 0 1.414-1.414l-7-7a1 1 0 0 0-1.414 0l-7 7a1 1 0 0 0 0 1.414z" transform="rotate(0 12 12)" fill="#393C41"></path>
  </symbol>
  <symbol id="tds-icon-chevron--filled--90" viewBox="0 0 24 24" xmlns="http://www.w3.org/2000/svg">
    <path d="M4.293 16.317a1 1 0 0 0 1.414 0L12 10.025l6.293 6.293a1 1 0 1 0 1.414-1.414l-7-7a1 1 0 0 0-1.414 0l-7 7a1 1 0 0 0 0 1.414z" transform="rotate(90 12 12)" fill="#393C41"></path>
  </symbol>
  <symbol id="tds-icon-chevron--filled--180" viewBox="0 0 24 24" xmlns="http://www.w3.org/2000/svg">
    <path d="M4.293 16.317a1 1 0 0 0 1.414 0L12 10.025l6.293 6.293a1 1 0 1 0 1.414-1.414l-7-7a1 1 0 0 0-1.414 0l-7 7a1 1 0 0 0 0 1.414z" transform="rotate(180 12 12)" fill="#393C41"></path>
  </symbol>
  <symbol id="tds-icon-chevron--filled--270" viewBox="0 0 24 24" xmlns="http://www.w3.org/2000/svg">
    <path d="M4.293 16.317a1 1 0 0 0 1.414 0L12 10.025l6.293 6.293a1 1 0 1 0 1.414-1.414l-7-7a1 1 0 0 0-1.414 0l-7 7a1 1 0 0 0 0 1.414z" transform="rotate(270 12 12)" fill="#393C41"></path>
  </symbol>
  <symbol id="tds-icon-chevron--0" viewBox="0 0 24 24" xmlns="http://www.w3.org/2000/svg">
    <path d="m19.78 15.057-7.232-7.213a.75.75 0 0 0-1.06 0l-7.268 7.25a.75.75 0 0 0 1.06 1.062l6.739-6.721 6.701 6.684a.75.75 0 0 0 1.06-1.062z" transform="rotate(0 12 12)" fill="#393C41"></path>
  </symbol>
  <symbol id="tds-icon-chevron--90" viewBox="0 0 24 24" xmlns="http://www.w3.org/2000/svg">
    <path d="m19.78 15.057-7.232-7.213a.75.75 0 0 0-1.06 0l-7.268 7.25a.75.75 0 0 0 1.06 1.062l6.739-6.721 6.701 6.684a.75.75 0 0 0 1.06-1.062z" transform="rotate(90 12 12)" fill="#393C41"></path>
  </symbol>
  <symbol id="tds-icon-chevron--180" viewBox="0 0 24 24" xmlns="http://www.w3.org/2000/svg">
    <path d="m19.78 15.057-7.232-7.213a.75.75 0 0 0-1.06 0l-7.268 7.25a.75.75 0 0 0 1.06 1.062l6.739-6.721 6.701 6.684a.75.75 0 0 0 1.06-1.062z" transform="rotate(180 12 12)" fill="#393C41"></path>
  </symbol>
  <symbol id="tds-icon-chevron--270" viewBox="0 0 24 24" xmlns="http://www.w3.org/2000/svg">
    <path d="m19.78 15.057-7.232-7.213a.75.75 0 0 0-1.06 0l-7.268 7.25a.75.75 0 0 0 1.06 1.062l6.739-6.721 6.701 6.684a.75.75 0 0 0 1.06-1.062z" transform="rotate(270 12 12)" fill="#393C41"></path>
  </symbol>
  <symbol id="tds-icon-chevron-small" viewBox="0 0 16 16" xmlns="http://www.w3.org/2000/svg">
    <path d="M2.75 11.025a.748.748 0 0 1-.53-1.281l5.264-5.25a.75.75 0 0 1 1.06 0l5.236 5.223a.75.75 0 1 1-1.06 1.062L8.014 6.084 3.28 10.806a.748.748 0 0 1-.53.219z" transform="rotate(0 8 8)" fill="#393C41"></path>
  </symbol>
  <symbol id="tds-icon-chevron-small--0" viewBox="0 0 16 16" xmlns="http://www.w3.org/2000/svg">
    <path d="M2.75 11.025a.748.748 0 0 1-.53-1.281l5.264-5.25a.75.75 0 0 1 1.06 0l5.236 5.223a.75.75 0 1 1-1.06 1.062L8.014 6.084 3.28 10.806a.748.748 0 0 1-.53.219z" transform="rotate(0 8 8)" fill="#393C41"></path>
  </symbol>
  <symbol id="tds-icon-chevron-small--90" viewBox="0 0 16 16" xmlns="http://www.w3.org/2000/svg">
    <path d="M2.75 11.025a.748.748 0 0 1-.53-1.281l5.264-5.25a.75.75 0 0 1 1.06 0l5.236 5.223a.75.75 0 1 1-1.06 1.062L8.014 6.084 3.28 10.806a.748.748 0 0 1-.53.219z" transform="rotate(90 8 8)" fill="#393C41"></path>
  </symbol>
  <symbol id="tds-icon-chevron-small--180" viewBox="0 0 16 16" xmlns="http://www.w3.org/2000/svg">
    <path d="M2.75 11.025a.748.748 0 0 1-.53-1.281l5.264-5.25a.75.75 0 0 1 1.06 0l5.236 5.223a.75.75 0 1 1-1.06 1.062L8.014 6.084 3.28 10.806a.748.748 0 0 1-.53.219z" transform="rotate(180 8 8)" fill="#393C41"></path>
  </symbol>
  <symbol id="tds-icon-chevron-small--270" viewBox="0 0 16 16" xmlns="http://www.w3.org/2000/svg">
    <path d="M2.75 11.025a.748.748 0 0 1-.53-1.281l5.264-5.25a.75.75 0 0 1 1.06 0l5.236 5.223a.75.75 0 1 1-1.06 1.062L8.014 6.084 3.28 10.806a.748.748 0 0 1-.53.219z" transform="rotate(270 8 8)" fill="#393C41"></path>
  </symbol>
  <symbol id="tds-icon-clock" viewBox="0 0 24 24" xmlns="http://www.w3.org/2000/svg">
    <path d="M15.53 14.47a.75.75 0 1 1-1.06 1.06l-3-3a.75.75 0 0 1-.22-.53V7.5a.75.75 0 0 1 1.5 0v4.19l2.78 2.78zM22 12c0 5.523-4.477 10-10 10S2 17.523 2 12 6.477 2 12 2s10 4.477 10 10zm-1.5 0a8.5 8.5 0 1 0-17 0 8.5 8.5 0 0 0 17 0z" fill="#393C41"></path>
  </symbol>
  <symbol id="tds-icon-clock--filled" viewBox="0 0 24 24" xmlns="http://www.w3.org/2000/svg">
    <path d="M12 2C6.477 2 2 6.477 2 12s4.477 10 10 10 10-4.477 10-10S17.523 2 12 2zm3.53 13.53a.75.75 0 0 1-1.06 0l-3-3a.75.75 0 0 1-.22-.53V7.5a.75.75 0 0 1 1.5 0v4.19l2.78 2.78a.75.75 0 0 1 0 1.06z" fill="#393C41"></path>
  </symbol>
  <symbol id="tds-icon-close" viewBox="0 0 24 24" xmlns="http://www.w3.org/2000/svg">
    <path d="M18.53 17.47a.75.75 0 1 1-1.06 1.06L12 13.06l-5.47 5.47a.748.748 0 0 1-1.06 0 .75.75 0 0 1 0-1.06L10.94 12 5.47 6.53a.75.75 0 1 1 1.06-1.06L12 10.94l5.47-5.47a.75.75 0 1 1 1.06 1.06L13.06 12l5.47 5.47z" fill="#393C41"></path>
  </symbol>
  <symbol id="tds-icon-close--filled" viewBox="0 0 24 24" xmlns="http://www.w3.org/2000/svg">
    <path d="M18.457 6.957a1 1 0 0 0-1.414-1.414L12 10.586 6.957 5.543a1 1 0 0 0-1.414 1.414L10.586 12l-5.043 5.043a1 1 0 1 0 1.414 1.414L12 13.414l5.043 5.043a1 1 0 0 0 1.414-1.414L13.414 12l5.043-5.043Z" fill="#393C41"></path>
  </symbol>
  <symbol id="tds-icon-close-small" viewBox="0 0 16 16" xmlns="http://www.w3.org/2000/svg">
    <path d="M12.243 11.182a.75.75 0 1 1-1.06 1.06L8 9.062l-3.182 3.182a.748.748 0 0 1-1.06 0 .75.75 0 0 1 0-1.06L6.938 8 3.757 4.818a.75.75 0 1 1 1.06-1.06L8 6.938l3.182-3.182a.75.75 0 1 1 1.06 1.06L9.062 8l3.182 3.182z" fill="#393C41"></path>
  </symbol>
  <symbol id="tds-icon-contact" viewBox="0 0 24 24" xmlns="http://www.w3.org/2000/svg">
    <path d="M17.5 2h-11A2.5 2.5 0 0 0 4 4.5V6h-.75a.75.75 0 0 0 0 1.5H4v9h-.75a.75.75 0 0 0 0 1.5H4v1.5A2.5 2.5 0 0 0 6.5 22h11a2.5 2.5 0 0 0 2.5-2.5v-15A2.5 2.5 0 0 0 17.5 2zm1 17.5c0 .551-.449 1-1 1h-11c-.551 0-1-.449-1-1V18h.75a.75.75 0 0 0 0-1.5H5.5v-9h.75a.75.75 0 0 0 0-1.5H5.5V4.5c0-.551.449-1 1-1h11c.551 0 1 .449 1 1v15zm-8.25-9.75a1.75 1.75 0 1 1 3.5 0 1.75 1.75 0 0 1-3.5 0zm5.365 5.42c.057.286-.115.502-.46.555-2.1.153-4.21.153-6.31 0-.293-.041-.517-.269-.46-.555.3-1.509 1.805-2.656 3.615-2.656 1.81 0 3.315 1.147 3.615 2.656z" fill="#393C41"></path>
  </symbol>
  <symbol id="tds-icon-contact--filled" viewBox="0 0 24 24" xmlns="http://www.w3.org/2000/svg">
    <path d="M17.5 2h-11A2.5 2.5 0 0 0 4 4.5V6h-.75a.75.75 0 0 0 0 1.5H4v9h-.75a.75.75 0 0 0 0 1.5H4v1.5A2.5 2.5 0 0 0 6.5 22h11a2.5 2.5 0 0 0 2.5-2.5v-15A2.5 2.5 0 0 0 17.5 2ZM12 8a1.75 1.75 0 1 1 0 3.5A1.75 1.75 0 0 1 12 8Zm3.156 7.725c-2.101.153-4.21.153-6.312 0-.292-.041-.516-.268-.46-.555.301-1.509 1.806-2.656 3.616-2.656s3.315 1.147 3.615 2.656c.057.287-.115.502-.46.555Z" fill="#393C41"></path>
  </symbol>
  <symbol id="tds-icon-contract" viewBox="0 0 24 24" xmlns="http://www.w3.org/2000/svg">
    <path d="M6.997 14.245a.75.75 0 0 1 .75-.75h8.5a.75.75 0 1 1 0 1.5h-8.5a.75.75 0 0 1-.75-.75zm9.253 2.75H7.747a.75.75 0 1 0 0 1.5h8.503a.75.75 0 1 0 0-1.5zm-5.858-5.794a.75.75 0 0 0 1.063 0l4.326-4.343a.75.75 0 1 0-1.062-1.059l-3.796 3.81L9.281 7.96A.75.75 0 1 0 8.22 9.019l2.173 2.182zM20 4.5v15a2.5 2.5 0 0 1-2.5 2.5h-11A2.5 2.5 0 0 1 4 19.5v-15A2.5 2.5 0 0 1 6.5 2h11A2.5 2.5 0 0 1 20 4.5zm-1.5 0c0-.551-.449-1-1-1h-11c-.551 0-1 .449-1 1v15c0 .551.449 1 1 1h11c.551 0 1-.449 1-1v-15z" fill="#393C41"></path>
  </symbol>
  <symbol id="tds-icon-contract--filled" viewBox="0 0 24 24" xmlns="http://www.w3.org/2000/svg">
    <path d="M17.5 2h-11A2.5 2.5 0 0 0 4 4.5v15A2.5 2.5 0 0 0 6.5 22h11a2.5 2.5 0 0 0 2.5-2.5v-15A2.5 2.5 0 0 0 17.5 2zM8.22 7.959a.75.75 0 0 1 1.061.002l1.642 1.648 3.796-3.81a.75.75 0 1 1 1.062 1.059L11.455 11.2a.75.75 0 0 1-1.063 0L8.219 9.019a.75.75 0 0 1 .002-1.06zm-.473 5.536h8.5a.75.75 0 1 1 0 1.5h-8.5a.75.75 0 1 1 0-1.5zm8.503 5H7.747a.75.75 0 1 1 0-1.5h8.503a.75.75 0 1 1 0 1.5z" fill="#393C41"></path>
  </symbol>
  <symbol id="tds-icon-crosshair" viewBox="0 0 24 24" xmlns="http://www.w3.org/2000/svg">
    <path d="M12 3a9 9 0 1 0 0 18 9 9 0 0 0 0-18zm.75 16.462V15.75a.75.75 0 0 0-1.5 0v3.712a7.513 7.513 0 0 1-6.712-6.712H8.25a.75.75 0 0 0 0-1.5H4.538a7.513 7.513 0 0 1 6.712-6.712V8.25a.75.75 0 0 0 1.5 0V4.538a7.513 7.513 0 0 1 6.712 6.712H15.75a.75.75 0 0 0 0 1.5h3.712a7.513 7.513 0 0 1-6.712 6.712z" fill="#393C41"></path>
  </symbol>
  <symbol id="tds-icon-double-chevron" viewBox="0 0 24 24" xmlns="http://www.w3.org/2000/svg">
    <path d="M17.25 8.75a.747.747 0 01-.53-.22L12 3.81 7.28 8.53a.75.75 0 11-1.06-1.06l5.25-5.25a.75.75 0 011.06 0l5.25 5.25a.75.75 0 01-.53 1.28z" fill="#393C41"></path>
    <path d="M12 22a.747.747 0 01-.53-.22l-5.25-5.25a.75.75 0 111.06-1.06L12 20.19l4.72-4.72a.75.75 0 111.06 1.06l-5.25 5.25A.747.747 0 0112 22z" fill="#393C41"></path>
  </symbol>
  <symbol id="tds-icon-double-chevron--filled" viewBox="0 0 24 24" xmlns="http://www.w3.org/2000/svg">
    <path d="M 7.707,8.707 A 1,1 0 0 1 6.293,7.293 l 5,-5 a 1,1 0 0 1 1.414,0 l 5,5 A 1,1 0 0 1 16.293,8.707 L 12,4.414 Z" fill="#393C41"></path>
    <path d="m 7.707,15.293 a 1,1 0 0 0 -1.414,1.414 l 5,5 a 1,1 0 0 0 1.414,0 l 5,-5 A 1,1 0 0 0 16.293,15.293 L 12,19.586 Z" fill="#393C41"></path>
  </symbol>
  <symbol id="tds-icon-double-chevron-small" viewBox="0 0 16 16" xmlns="http://www.w3.org/2000/svg">
    <path d="M4.8 6.8c.2 0 .4-.1.5-.2L8 3.8l2.7 2.7c.3.3.8.3 1.1 0 .3-.3.3-.8 0-1.1L8.5 2.2c-.3-.3-.8-.3-1.1 0L4.2 5.5c-.3.3-.3.8 0 1.1.2.1.4.2.6.2z" fill="#393C41"></path>
    <path d="M11.8 9.5c.3.3.3.8 0 1.1l-3.2 3.2c-.2.1-.4.2-.6.2s-.4-.1-.5-.2l-3.3-3.2c-.3-.3-.3-.8 0-1.1.3-.3.8-.3 1.1 0L8 12.2l2.7-2.7c.3-.3.8-.3 1.1 0z" fill="#393C41"></path>
  </symbol>
  <symbol id="tds-icon-download" viewBox="0 0 24 24" xmlns="http://www.w3.org/2000/svg">
    <path d="M20 21.27a.75.75 0 0 1-.75.75H4.75a.75.75 0 0 1 0-1.5h14.5a.75.75 0 0 1 .75.75zm-8.53-3.49a.747.747 0 0 0 1.06 0l5-5a.75.75 0 1 0-1.06-1.06l-3.72 3.72V2.77a.75.75 0 0 0-1.5 0v12.67l-3.72-3.72a.75.75 0 1 0-1.06 1.06l5 5z" fill="#393C41"></path>
  </symbol>
  <symbol id="tds-icon-download--filled" viewBox="0 0 24 24" xmlns="http://www.w3.org/2000/svg">
    <path d="M13 3a1 1 0 1 0-2 0v11.586l-3.043-3.043a1 1 0 0 0-1.414 1.414l4.75 4.75a1 1 0 0 0 1.414 0l4.75-4.75a1 1 0 0 0-1.414-1.414L13 14.586V3ZM5 20a1 1 0 1 0 0 2h14a1 1 0 1 0 0-2H5Z" fill="#393C41"></path>
  </symbol>
  <symbol id="tds-icon-download-small" viewBox="0 0 16 16" xmlns="http://www.w3.org/2000/svg">
    <path d="M3.75 12.5a.75.75 0 0 0 0 1.5h8.5a.75.75 0 0 0 0-1.5Zm5-10a.75.75 0 0 0-1.5 0v5.94L5.53 6.72a.75.75 0 0 0-1.06 1.06l3 3a.75.75 0 0 0 1.06 0l3-3a.75.75 0 0 0-1.06-1.06L8.75 8.44Z" fill="#393C41"></path>
  </symbol>
  <symbol id="tds-icon-download-small--filled" viewBox="0 0 16 16" xmlns="http://www.w3.org/2000/svg">
    <path d="M8.75 2.5a.75.75 0 0 0-1.5 0v5.94L5.53 6.72a.75.75 0 0 0-1.06 1.06l3 3a.75.75 0 0 0 1.06 0l3-3a.75.75 0 0 0-1.06-1.06L8.75 8.44V2.5Zm-5 10a.75.75 0 0 0 0 1.5h8.5a.75.75 0 0 0 0-1.5h-8.5Z" fill="#393C41"></path>
  </symbol>
  <symbol id="tds-icon-diagnostics" viewBox="0 0 24 24" xmlns="http://www.w3.org/2000/svg">
    <path d="M22 13.5a.75.75 0 0 1-.75.75h-2.692l-1.34 4.466a.75.75 0 0 1-.718.534h-.024a.752.752 0 0 1-.707-.581l-2.358-10.22-2.442 8.264a.752.752 0 0 1-.698.537.726.726 0 0 1-.728-.498L7.68 11.533l-.996 2.28a.75.75 0 0 1-.687.45H2.75a.75.75 0 0 1 0-1.5h2.756l1.557-3.564a.73.73 0 0 1 .713-.449.75.75 0 0 1 .68.498l1.727 4.833 2.598-8.794a.772.772 0 0 1 .741-.537.75.75 0 0 1 .709.581l2.364 10.243.687-2.29A.75.75 0 0 1 18 12.75h3.25a.75.75 0 0 1 .75.75z" fill="#393C41"></path>
  </symbol>
  <symbol id="tds-icon-ellipsis" viewBox="0 0 24 24" xmlns="http://www.w3.org/2000/svg">
    <path d="M10.5 5.5a1.5 1.5 0 1 1 3 0 1.5 1.5 0 0 1-3 0zm1.5 5a1.5 1.5 0 1 0 0 3 1.5 1.5 0 0 0 0-3zm0 6.5a1.5 1.5 0 1 0 0 3 1.5 1.5 0 0 0 0-3z" fill="#393C41"></path>
  </symbol>
  <symbol id="tds-icon-ellipsis--filled" viewBox="0 0 24 24" xmlns="http://www.w3.org/2000/svg">
    <path d="M14 5.5a2 2 0 1 1-4 0 2 2 0 0 1 4 0Zm0 6.5a2 2 0 1 1-4 0 2 2 0 0 1 4 0Zm-2 8.5a2 2 0 1 0 0-4 2 2 0 0 0 0 4Z" fill="#393C41"></path>
  </symbol>
  <symbol id="tds-icon-ellipsis-small" viewBox="0 0 16 16" xmlns="http://www.w3.org/2000/svg">
    <path d="M7 4a1 1 0 1 1 2 0 1 1 0 0 1-2 0zm1 3a1 1 0 1 0 0 2 1 1 0 0 0 0-2zm0 4a1 1 0 1 0 0 2 1 1 0 0 0 0-2z" fill="#393C41"></path>
  </symbol>
  <symbol id="tds-icon-error" viewBox="0 0 24 24" xmlns="http://www.w3.org/2000/svg">
    <path d="M12 3.5c4.687 0 8.5 3.813 8.5 8.5s-3.813 8.5-8.5 8.5-8.5-3.813-8.5-8.5S7.313 3.5 12 3.5M12 2C6.477 2 2 6.477 2 12s4.477 10 10 10 10-4.477 10-10S17.523 2 12 2zm.75 11.25v-4.5a.75.75 0 0 0-1.5 0v4.5a.75.75 0 0 0 1.5 0zM12 15a1 1 0 1 0 0 2 1 1 0 0 0 0-2z" fill="#393C41"></path>
  </symbol>
  <symbol id="tds-icon-error--filled" viewBox="0 0 24 24" xmlns="http://www.w3.org/2000/svg">
    <path d="M12 2C6.477 2 2 6.477 2 12s4.477 10 10 10 10-4.477 10-10S17.523 2 12 2zm-.75 6.75a.75.75 0 0 1 1.5 0v4.5a.75.75 0 0 1-1.5 0v-4.5zM12 17a1 1 0 1 1 0-2 1 1 0 0 1 0 2z" fill="#393C41"></path>
  </symbol>
  <symbol id="tds-icon-error-small" viewBox="0 0 16 16" xmlns="http://www.w3.org/2000/svg">
    <path d="M8 2a6 6 0 1 0 0 12A6 6 0 0 0 8 2zm0 10.5c-2.481 0-4.5-2.019-4.5-4.5S5.519 3.5 8 3.5s4.5 2.019 4.5 4.5-2.019 4.5-4.5 4.5zm-.75-5V5.75a.75.75 0 0 1 1.5 0V7.5a.75.75 0 0 1-1.5 0zM9 10a1 1 0 1 1-2 0 1 1 0 0 1 2 0z" fill="#393C41"></path>
  </symbol>
  <symbol id="tds-icon-error-small--filled" viewBox="0 0 16 16" xmlns="http://www.w3.org/2000/svg">
    <path d="M8 2a6 6 0 1 0 0 12A6 6 0 0 0 8 2zm-.75 3.75a.75.75 0 0 1 1.5 0V7.5a.75.75 0 0 1-1.5 0V5.75zM8 11a1 1 0 1 1 0-2 1 1 0 0 1 0 2z" fill="#393C41"></path>
  </symbol>
  <symbol id="tds-icon-external" viewBox="0 0 24 24" xmlns="http://www.w3.org/2000/svg">
    <path d="M20 12.75v4.751A2.502 2.502 0 0 1 17.501 20H6.499A2.502 2.502 0 0 1 4 17.501V6.499A2.502 2.502 0 0 1 6.499 4h4.751a.75.75 0 0 1 0 1.5H6.499a1 1 0 0 0-.999.999v11.002a1 1 0 0 0 .999.999h11.002a1 1 0 0 0 .999-.999V12.75a.75.75 0 0 1 1.5 0zM19.25 4h-4.5a.75.75 0 0 0 0 1.5h2.69l-6.22 6.22a.75.75 0 1 0 1.06 1.06l6.22-6.22v2.69a.75.75 0 0 0 1.5 0v-4.5a.75.75 0 0 0-.75-.75z" fill="#393C41"></path>
  </symbol>
  <symbol id="tds-icon-external-small" viewBox="0 0 16 16" xmlns="http://www.w3.org/2000/svg">
    <path d="M13 9.75V11c0 1.103-.897 2-2 2H5c-1.103 0-2-.897-2-2V5c0-1.103.897-2 2-2h1.25a.75.75 0 0 1 0 1.5H5a.5.5 0 0 0-.5.5v6a.5.5 0 0 0 .5.5h6a.5.5 0 0 0 .5-.5V9.75a.75.75 0 0 1 1.5 0zM12.25 3h-3.5a.75.75 0 0 0 0 1.5h1.686L7.22 7.72a.75.75 0 0 0 1.06 1.06l3.22-3.223V7.25a.75.75 0 0 0 1.5 0v-3.5a.75.75 0 0 0-.75-.75z" fill="#393C41"></path>
  </symbol>
  <symbol id="tds-icon-eye" viewBox="0 0 24 24" xmlns="http://www.w3.org/2000/svg">
    <path d="M21.598 10.808C20.018 8.81 16.424 5 12 5s-8.018 3.81-9.598 5.808c-.536.678-.536 1.706 0 2.384C3.982 15.19 7.576 19 12 19s8.018-3.81 9.598-5.808c.536-.678.536-1.706 0-2.384zm-1.176 1.453C19.176 13.836 15.86 17.5 12 17.5s-7.176-3.664-8.422-5.24a.475.475 0 0 1 0-.521C4.824 10.164 8.14 6.5 12 6.5s7.176 3.664 8.422 5.239a.475.475 0 0 1 0 .522zM12 8.5a3.5 3.5 0 1 0 0 7 3.5 3.5 0 0 0 0-7zm0 5.5c-1.103 0-2-.897-2-2s.897-2 2-2 2 .897 2 2-.897 2-2 2z" fill="#393C41"></path>
  </symbol>
  <symbol id="tds-icon-eye--filled" viewBox="0 0 24 24" xmlns="http://www.w3.org/2000/svg">
    <path d="M15 12a3 3 0 1 1-6 0 3 3 0 0 1 6 0zm6.598 1.192C20.018 15.19 16.424 19 12 19s-8.018-3.81-9.598-5.808c-.536-.678-.536-1.706 0-2.384C3.982 8.81 7.576 5 12 5s8.018 3.81 9.598 5.808c.536.678.536 1.706 0 2.384zM16.5 12a4.5 4.5 0 1 0-9 0 4.5 4.5 0 0 0 9 0z" fill="#393C41"></path>
  </symbol>
  <symbol id="tds-icon-eye--off" viewBox="0 0 24 24" xmlns="http://www.w3.org/2000/svg">
    <path d="m20.28 4.78-15.5 15.5a.747.747 0 0 1-1.06 0 .75.75 0 0 1 0-1.06l15.5-15.5a.75.75 0 1 1 1.06 1.06zm1.32 6.03c-.5-.63-1.2-1.45-2.07-2.26a.749.749 0 0 0-1.04.02c-.3.3-.29.79.01 1.08.84.79 1.5 1.56 1.92 2.09.12.14.12.38 0 .52-1.24 1.58-4.56 5.24-8.42 5.24-.56 0-1.1-.08-1.63-.21a.744.744 0 0 0-.94.48c-.13.4.08.81.47.94l.15.04c.63.16 1.28.25 1.95.25 4.42 0 8.02-3.81 9.6-5.81.53-.68.53-1.7 0-2.38zM4.47 15.45c.29.28.76.26 1.04-.02.3-.3.29-.79-.01-1.08-.84-.79-1.5-1.56-1.92-2.09a.42.42 0 0 1 0-.52C4.82 10.16 8.14 6.5 12 6.5c.53 0 1.05.07 1.55.19l.283.064c.187.045.427-.074.567-.214.14-.14.22-.33.22-.54 0-.31-.18-.57-.44-.69l-.25-.06C13.31 5.08 12.67 5 12 5c-4.42 0-8.02 3.81-9.6 5.81-.53.68-.53 1.7 0 2.38.5.63 1.2 1.45 2.07 2.26zm10.51-3.24-2.78 2.78c-.05.05-.08.13-.08.2 0 .15.11.28.26.29.04 0 .09-.01.13-.02a3.5 3.5 0 0 0 2.95-2.96c.01-.03.01-.06.01-.09 0-.15-.13-.28-.29-.28a.28.28 0 0 0-.2.08zm-3.52-3.69a3.5 3.5 0 0 0-2.95 2.96c-.01.03-.01.06-.01.09 0 .15.13.28.29.28.08 0 .15-.03.2-.08l2.78-2.78c.05-.05.08-.13.08-.2 0-.15-.11-.28-.26-.29-.04 0-.09.01-.13.02z" fill="#393C41"></path>
  </symbol>
  <symbol id="tds-icon-eye--filled--off" viewBox="0 0 24 24" xmlns="http://www.w3.org/2000/svg">
    <path d="M20.28 3.72a.747.747 0 0 0-1.06 0l-15.5 15.5a.75.75 0 1 0 1.06 1.06l15.5-15.5a.75.75 0 0 0 0-1.06ZM4.664 15.626l.043.04.046.045a.263.263 0 0 0 .359-.008l3.23-3.231c.098-.097.169-.265.158-.372V12A3.5 3.5 0 0 1 12 8.5h.1c.107.01.275-.06.372-.158l2.526-2.525c.097-.098.082-.214-.034-.258l-.079-.03C13.893 5.135 13.119 5 12 5c-4.424 0-8.018 3.81-9.598 5.808-.536.678-.536 1.706 0 2.384.458.58 1.098 1.311 1.867 2.058l.395.376Zm16.531-5.309c.146.172.282.338.403.491.536.678.536 1.706 0 2.384C20.018 15.19 16.424 19 12 19c-1.118 0-1.893-.134-2.886-.53l-.078-.029c-.003 0-.004-.003-.005-.005 0-.002-.002-.004-.004-.005l-.09-.031a2.078 2.078 0 0 1-.111-.04l2.888-2.889c.037.003.073.008.11.013.058.008.116.016.176.016a3.5 3.5 0 0 0 3.5-3.5c0-.06-.008-.118-.016-.176-.005-.037-.01-.073-.013-.11l3.593-3.593c.035.03.068.062.1.093.026.025.052.05.08.074h.001l.002.001a1.688 1.688 0 0 1 .089.085l.02.02c.533.49 1.006.978 1.415 1.436l.018.022.019.02c.135.153.267.302.387.445Z" fill="#393C41"></path>
  </symbol>
  <symbol id="tds-icon-filter" viewBox="0 0 24 24" xmlns="http://www.w3.org/2000/svg">
    <path d="M20.006 12a.75.75 0 0 1-.75.75h-2.404a1.998 1.998 0 0 1-3.704 0H4.744a.75.75 0 0 1 0-1.5h8.404a1.998 1.998 0 0 1 3.704 0h2.404a.75.75 0 0 1 .75.75zM4.744 6.75h2.404a1.998 1.998 0 0 0 3.704 0h8.404a.75.75 0 0 0 0-1.5h-8.404a1.998 1.998 0 0 0-3.704 0H4.744a.75.75 0 0 0 0 1.5zm14.512 10.5h-8.404a1.998 1.998 0 0 0-3.704 0H4.744a.75.75 0 0 0 0 1.5h2.404a1.998 1.998 0 0 0 3.704 0h8.404a.75.75 0 0 0 0-1.5z" fill="#393C41"></path>
  </symbol>
  <symbol id="tds-icon-fullscreen" viewBox="0 0 24 24" xmlns="http://www.w3.org/2000/svg">
    <path d="M20 4.75v3.5a.75.75 0 0 1-1.5 0V5.5h-2.75a.75.75 0 0 1 0-1.5h3.5a.75.75 0 0 1 .75.75zM8.25 4h-3.5a.75.75 0 0 0-.75.75v3.5a.75.75 0 0 0 1.5 0V5.5h2.75a.75.75 0 0 0 0-1.5zm0 14.5H5.5v-2.75a.75.75 0 0 0-1.5 0v3.5c0 .414.336.75.75.75h3.5a.75.75 0 0 0 0-1.5zm11-3.5a.75.75 0 0 0-.75.75v2.75h-2.75a.75.75 0 0 0 0 1.5h3.5a.75.75 0 0 0 .75-.75v-3.5a.75.75 0 0 0-.75-.75z" fill="#393C41"></path>
  </symbol>
  <symbol id="tds-icon-fullscreen--filled" viewBox="0 0 24 24" xmlns="http://www.w3.org/2000/svg">
    <path d="M5 4a1 1 0 0 0-1 1v3.5a1 1 0 0 0 2 0V6h2.5a1 1 0 0 0 0-2H5Zm0 16a1 1 0 0 1-1-1v-3.5a1 1 0 1 1 2 0V18h2.5a1 1 0 1 1 0 2H5Zm15-1a1 1 0 0 1-1 1h-3.5a1 1 0 1 1 0-2H18v-2.5a1 1 0 1 1 2 0V19ZM19 4a1 1 0 0 1 1 1v3.5a1 1 0 1 1-2 0V6h-2.5a1 1 0 1 1 0-2H19Z" fill="#393C41"></path>
  </symbol>
  <symbol id="tds-icon-fullscreen--exit" viewBox="0 0 24 24" xmlns="http://www.w3.org/2000/svg">
    <path d="M15 8.25v-3.5a.75.75 0 0 1 1.5 0V7.5h2.75a.75.75 0 0 1 0 1.5h-3.5a.75.75 0 0 1-.75-.75zM8.25 4a.75.75 0 0 0-.75.75V7.5H4.75a.75.75 0 0 0 0 1.5h3.5A.75.75 0 0 0 9 8.25v-3.5A.75.75 0 0 0 8.25 4zm0 11h-3.5a.75.75 0 0 0 0 1.5H7.5v2.75a.75.75 0 0 0 1.5 0v-3.5a.75.75 0 0 0-.75-.75zm11 0h-3.5a.75.75 0 0 0-.75.75v3.5a.75.75 0 0 0 1.5 0V16.5h2.75a.75.75 0 0 0 0-1.5z" fill="#393C41"></path>
  </symbol>
  <symbol id="tds-icon-fullscreen--filled--exit" viewBox="0 0 24 24" xmlns="http://www.w3.org/2000/svg">
    <path d="M8.5 9.5a1 1 0 0 0 1-1V5a1 1 0 0 0-2 0v2.5H5a1 1 0 0 0 0 2h3.5Zm0 5a1 1 0 0 1 1 1V19a1 1 0 1 1-2 0v-2.5H5a1 1 0 1 1 0-2h3.5Zm6 1a1 1 0 0 1 1-1H19a1 1 0 1 1 0 2h-2.5V19a1 1 0 1 1-2 0v-3.5Zm1-6a1 1 0 0 1-1-1V5a1 1 0 1 1 2 0v2.5H19a1 1 0 1 1 0 2h-3.5Z" fill="#393C41"></path>
  </symbol>
  <symbol id="tds-icon-gear" viewBox="0 0 24 24" xmlns="http://www.w3.org/2000/svg">
    <path d="M20.402 12.737a1.111 1.111 0 0 1 0-1.474l.69-.779a2 2 0 0 0 .236-2.327l-1.336-2.314a2 2 0 0 0-2.133-.96l-1.02.209a1.111 1.111 0 0 1-1.277-.737l-.328-.987A2 2 0 0 0 13.336 2h-2.672a2 2 0 0 0-1.898 1.368l-.329.987a1.111 1.111 0 0 1-1.277.737l-1.02-.209a1.998 1.998 0 0 0-2.132.96L2.672 8.157a2 2 0 0 0 .235 2.327l.69.779c.374.42.374 1.053 0 1.474l-.69.779a2 2 0 0 0-.235 2.327l1.336 2.314a2 2 0 0 0 2.133.96l1.02-.209a1.111 1.111 0 0 1 1.277.737l.328.987A2 2 0 0 0 10.664 22h2.672a2 2 0 0 0 1.898-1.368l.329-.987a1.111 1.111 0 0 1 1.277-.737l1.02.209a2.002 2.002 0 0 0 2.132-.96l1.336-2.314a2 2 0 0 0-.235-2.327l-.69-.779zm-1.122.995.69.779a.5.5 0 0 1 .06.582l-1.337 2.314a.501.501 0 0 1-.533.24l-1.02-.209a2.607 2.607 0 0 0-3 1.732l-.33.988a.5.5 0 0 1-.474.342h-2.672a.5.5 0 0 1-.475-.342l-.329-.987a2.607 2.607 0 0 0-3-1.733l-1.02.209a.502.502 0 0 1-.533-.24L3.97 15.093a.5.5 0 0 1 .059-.582l.69-.779a2.613 2.613 0 0 0 0-3.464l-.69-.779a.5.5 0 0 1-.06-.582l1.337-2.314a.501.501 0 0 1 .533-.24l1.02.209a2.607 2.607 0 0 0 3-1.732l.33-.988a.5.5 0 0 1 .474-.342h2.672a.5.5 0 0 1 .475.342l.329.987a2.607 2.607 0 0 0 3 1.733l1.02-.21a.502.502 0 0 1 .533.24l1.336 2.315a.5.5 0 0 1-.059.582l-.69.779a2.613 2.613 0 0 0 0 3.464zM12 8a4 4 0 1 0 0 8 4 4 0 0 0 0-8zm0 6.5c-1.378 0-2.5-1.121-2.5-2.5s1.122-2.5 2.5-2.5 2.5 1.122 2.5 2.5-1.122 2.5-2.5 2.5z" fill="#393C41"></path>
  </symbol>
  <symbol id="tds-icon-gear--filled" viewBox="0 0 24 24" xmlns="http://www.w3.org/2000/svg">
    <path d="M19.865 13.086c-.25-.304-.365-.693-.365-1.086s.115-.782.365-1.086l1.355-1.647a1 1 0 0 0 .094-1.135l-1.307-2.264a1 1 0 0 0-1.03-.486l-2.103.35a1.695 1.695 0 0 1-1.123-.228 1.704 1.704 0 0 1-.76-.86l-.748-1.995A1 1 0 0 0 13.307 2h-2.614a1 1 0 0 0-.936.649l-.749 1.995a1.704 1.704 0 0 1-.759.86 1.695 1.695 0 0 1-1.123.227l-2.103-.35a1 1 0 0 0-1.03.487L2.686 8.132a1 1 0 0 0 .094 1.135l1.355 1.647c.25.304.365.693.365 1.086s-.115.782-.365 1.086L2.78 14.733a1 1 0 0 0-.094 1.135l1.307 2.264a1 1 0 0 0 1.03.486l2.103-.35c.388-.064.782.03 1.123.228.34.197.621.492.76.86l.748 1.995a1 1 0 0 0 .936.649h2.614a1 1 0 0 0 .936-.649l.749-1.995c.138-.368.418-.663.759-.86a1.696 1.696 0 0 1 1.123-.227l2.103.35a1 1 0 0 0 1.03-.487l1.307-2.264a1 1 0 0 0-.094-1.135l-1.355-1.647zM12 16a4 4 0 1 1 0-8 4 4 0 0 1 0 8z" fill="#393C41"></path>
  </symbol>
  <symbol id="tds-icon-globe" viewBox="0 0 24 24" xmlns="http://www.w3.org/2000/svg">
    <path d="M12 2C6.477 2 2 6.477 2 12s4.477 10 10 10 10-4.477 10-10S17.523 2 12 2zm-.5 5.477a9.475 9.475 0 0 1-3.032-.66c.732-1.763 1.816-2.99 3.032-3.258v3.918zm0 1V11.5H7.514c.044-1.349.262-2.622.613-3.742 1.068.424 2.206.664 3.373.719zm0 4.023v3.023a10.475 10.475 0 0 0-3.373.719 14.132 14.132 0 0 1-.613-3.742H11.5zm0 4.023v3.918c-1.216-.268-2.3-1.495-3.032-3.258a9.475 9.475 0 0 1 3.032-.66zm1 0a9.475 9.475 0 0 1 3.032.66c-.732 1.763-1.816 2.99-3.032 3.258v-3.918zm0-1V12.5h3.986a14.132 14.132 0 0 1-.613 3.742 10.475 10.475 0 0 0-3.373-.719zm0-4.023V8.476a10.47 10.47 0 0 0 3.374-.714c.35 1.119.568 2.39.612 3.738H12.5zm0-4.024V3.56c1.217.268 2.301 1.497 3.034 3.262-.96.384-1.983.6-3.034.655zm2.582-3.389a8.5 8.5 0 0 1 2.544 1.558 9.47 9.47 0 0 1-1.168.74c-.377-.9-.84-1.681-1.376-2.298zM7.544 6.382a9.47 9.47 0 0 1-1.172-.734 8.499 8.499 0 0 1 2.546-1.561c-.535.616-.998 1.397-1.374 2.295zm-.353.948c-.396 1.237-.633 2.651-.677 4.17H3.525a8.453 8.453 0 0 1 2.129-5.135c.485.369 1.001.688 1.537.965zm-.677 5.17c.044 1.519.28 2.933.677 4.17-.536.277-1.052.596-1.537.965A8.453 8.453 0 0 1 3.525 12.5h2.99zm1.03 5.118c.376.898.839 1.679 1.374 2.295a8.5 8.5 0 0 1-2.546-1.56 9.465 9.465 0 0 1 1.172-.735zm8.912 0a9.38 9.38 0 0 1 1.172.734 8.5 8.5 0 0 1-2.546 1.561c.535-.616.998-1.397 1.374-2.295zm.353-.948c.396-1.237.633-2.651.677-4.17h2.989a8.453 8.453 0 0 1-2.129 5.135 10.468 10.468 0 0 0-1.537-.965zm.677-5.17c-.044-1.516-.28-2.93-.676-4.164a10.475 10.475 0 0 0 1.533-.975 8.452 8.452 0 0 1 2.132 5.139h-2.99z" fill="#393C41"></path>
  </symbol>
  <symbol id="tds-icon-grid" viewBox="0 0 24 24" xmlns="http://www.w3.org/2000/svg">
    <path d="M10 4H5a1 1 0 0 0-1 1v5a1 1 0 0 0 1 1h5a1 1 0 0 0 1-1V5a1 1 0 0 0-1-1zm-.5 5.5h-4v-4h4v4zM19 4h-5a1 1 0 0 0-1 1v5a1 1 0 0 0 1 1h5a1 1 0 0 0 1-1V5a1 1 0 0 0-1-1zm-.5 5.5h-4v-4h4v4zM10 13H5a1 1 0 0 0-1 1v5a1 1 0 0 0 1 1h5a1 1 0 0 0 1-1v-5a1 1 0 0 0-1-1zm-.5 5.5h-4v-4h4v4zM19 13h-5a1 1 0 0 0-1 1v5a1 1 0 0 0 1 1h5a1 1 0 0 0 1-1v-5a1 1 0 0 0-1-1zm-.5 5.5h-4v-4h4v4z" fill="#393C41"></path>
  </symbol>
  <symbol id="tds-icon-grid--filled" viewBox="0 0 24 24" xmlns="http://www.w3.org/2000/svg">
    <path d="M5 4a1 1 0 0 0-1 1v5a1 1 0 0 0 1 1h5a1 1 0 0 0 1-1V5a1 1 0 0 0-1-1H5Zm9 0a1 1 0 0 0-1 1v5a1 1 0 0 0 1 1h5a1 1 0 0 0 1-1V5a1 1 0 0 0-1-1h-5ZM4 14a1 1 0 0 1 1-1h5a1 1 0 0 1 1 1v5a1 1 0 0 1-1 1H5a1 1 0 0 1-1-1v-5Zm10-1a1 1 0 0 0-1 1v5a1 1 0 0 0 1 1h5a1 1 0 0 0 1-1v-5a1 1 0 0 0-1-1h-5Z" fill="#393C41"></path>
  </symbol>
  <symbol id="tds-icon-history" viewBox="0 0 24 24" xmlns="http://www.w3.org/2000/svg">
    <path d="M12.75 8.75a.75.75 0 0 0-1.5 0V12c0 .199.079.39.22.53l2.25 2.25a.75.75 0 1 0 1.06-1.06l-2.03-2.03V8.75ZM5 11.998 6.39 12c.098 0 .147.121.078.192l-2.06 2.12a.214.214 0 0 1-.309 0l-2.067-2.127c-.069-.071-.02-.193.078-.193l1.39.003a8.5 8.5 0 1 1 1.775 5.204.75.75 0 0 1 1.186-.919A7 7 0 1 0 5 11.997Z" fill="#393C41"></path>
  </symbol>
  <symbol id="tds-icon-history--filled" viewBox="0 0 24 24" xmlns="http://www.w3.org/2000/svg">
    <path d="M12 7.5a1 1 0 0 1 1 1v3.336l2.207 2.207a1 1 0 0 1-1.414 1.414l-2.5-2.5A1 1 0 0 1 11 12.25V8.5a1 1 0 0 1 1-1zm-6.75 4.498a6.75 6.75 0 1 1 1.409 4.13 1 1 0 0 0-1.582 1.224 8.75 8.75 0 1 0-1.827-5.357l-1.14-.002c-.098 0-.147.12-.078.192L4.1 14.312a.214.214 0 0 0 .31 0l2.059-2.12c.069-.07.02-.192-.077-.192l-1.141-.002Z" fill="#393C41"></path>
  </symbol>
  <symbol id="tds-icon-home" viewBox="0 0 24 24" xmlns="http://www.w3.org/2000/svg">
    <path d="m21.53 11.22-9-9a.75.75 0 0 0-1.06 0L4.013 9.677H4v.012l-1.53 1.53a.75.75 0 1 0 1.06 1.061l.47-.47v8.44c0 .414.336.75.75.75h5a.75.75 0 0 0 .75-.75V14.5h3v5.75c0 .414.336.75.75.75h5a.75.75 0 0 0 .75-.75v-8.44l.47.47a.747.747 0 0 0 1.06 0 .75.75 0 0 0 0-1.06zM18.5 19.5H15v-5.75a.75.75 0 0 0-.75-.75h-4.5a.75.75 0 0 0-.75.75v5.75H5.5v-9.19l6.5-6.5 6.5 6.5v9.19z" fill="#393C41"></path>
  </symbol>
  <symbol id="tds-icon-home--filled" viewBox="0 0 24 24" xmlns="http://www.w3.org/2000/svg">
    <path d="m21.53 11.22-9-9a.75.75 0 0 0-1.06 0L4.013 9.677H4v.012l-1.53 1.53a.75.75 0 1 0 1.06 1.061l.47-.47v8.44c0 .414.336.75.75.75h5a.75.75 0 0 0 .75-.75V14.5h3v5.75c0 .414.336.75.75.75h5a.75.75 0 0 0 .75-.75v-8.44l.47.47a.748.748 0 0 0 1.06 0 .75.75 0 0 0 0-1.06Z" fill="#393C41"></path>
  </symbol>
  <symbol id="tds-icon-info" viewBox="0 0 24 24" xmlns="http://www.w3.org/2000/svg">
    <path d="M12 2C6.477 2 2 6.477 2 12s4.477 10 10 10 10-4.477 10-10S17.523 2 12 2zm0 18.5c-4.687 0-8.5-3.813-8.5-8.5S7.313 3.5 12 3.5c4.687 0 8.5 3.813 8.5 8.5s-3.813 8.5-8.5 8.5zm.75-8.75v4.5a.75.75 0 0 1-1.5 0v-4.5a.75.75 0 0 1 1.5 0zM13 9a1 1 0 1 1-2 0 1 1 0 0 1 2 0z" fill="#393C41"></path>
  </symbol>
  <symbol id="tds-icon-info--filled" viewBox="0 0 24 24" xmlns="http://www.w3.org/2000/svg">
    <path d="M12 2C6.477 2 2 6.477 2 12s4.477 10 10 10 10-4.477 10-10S17.523 2 12 2zm.75 14.25a.75.75 0 0 1-1.5 0v-4.5a.75.75 0 0 1 1.5 0v4.5zM12 10a1 1 0 1 1 0-2 1 1 0 0 1 0 2z" fill="#393C41"></path>
  </symbol>
  <symbol id="tds-icon-info-small" viewBox="0 0 16 16" xmlns="http://www.w3.org/2000/svg">
    <path d="M8 2a6 6 0 1 0 0 12A6 6 0 0 0 8 2zm0 10.5c-2.481 0-4.5-2.019-4.5-4.5S5.519 3.5 8 3.5s4.5 2.019 4.5 4.5-2.019 4.5-4.5 4.5zm.75-4v1.75a.75.75 0 0 1-1.5 0V8.5a.75.75 0 0 1 1.5 0zM9 6a1 1 0 1 1-2 0 1 1 0 0 1 2 0z" fill="#393C41"></path>
  </symbol>
  <symbol id="tds-icon-info-small--filled" viewBox="0 0 16 16" xmlns="http://www.w3.org/2000/svg">
    <path d="M8 2a6 6 0 1 0 0 12A6 6 0 0 0 8 2zm.75 8.25a.75.75 0 0 1-1.5 0V8.5a.75.75 0 0 1 1.5 0v1.75zM8 7a1 1 0 1 1 0-2 1 1 0 0 1 0 2z" fill="#393C41"></path>
  </symbol>
  <symbol id="tds-icon-link" viewBox="0 0 24 24" xmlns="http://www.w3.org/2000/svg">
    <path d="M22.013 12c0 2.757-2.243 5-5 5h-3.276a.75.75 0 0 1 0-1.5h3.276c1.93 0 3.5-1.57 3.5-3.5s-1.57-3.5-3.5-3.5h-3.276a.75.75 0 0 1 0-1.5h3.276c2.757 0 5 2.243 5 5zm-11.75 3.5H6.987c-1.93 0-3.5-1.57-3.5-3.5s1.57-3.5 3.5-3.5h3.276a.75.75 0 0 0 0-1.5H6.987c-2.757 0-5 2.243-5 5s2.243 5 5 5h3.276a.75.75 0 0 0 0-1.5zM6.993 12c0 .414.336.75.75.75h8.5a.75.75 0 0 0 0-1.5h-8.5a.75.75 0 0 0-.75.75z" fill="#393C41"></path>
  </symbol>
  <symbol id="tds-icon-link--filled" viewBox="0 0 24 24" xmlns="http://www.w3.org/2000/svg">
    <path d="M8 11a1 1 0 1 0 0 2h8a1 1 0 1 0 0-2zm6-2a1 1 0 1 1 0-2h3a5 5 0 0 1 0 10h-3a1 1 0 1 1 0-2h3a3 3 0 1 0 0-6Zm-3-1a1 1 0 0 1-1 1H7a3 3 0 1 0 0 6h3a1 1 0 1 1 0 2H7A5 5 0 0 1 7 7h3a1 1 0 0 1 1 1z" fill="#393C41"></path>
  </symbol>
  <symbol id="tds-icon-list" viewBox="0 0 24 24" xmlns="http://www.w3.org/2000/svg">
    <path d="M5.25 7.5a1.25 1.25 0 1 0 0-2.5 1.25 1.25 0 0 0 0 2.5Zm3.5-2a.75.75 0 0 0 0 1.5h10.5a.75.75 0 0 0 0-1.5H8.75ZM6.5 17.75a1.25 1.25 0 1 1-2.5 0 1.25 1.25 0 0 1 2.5 0ZM8.75 17a.75.75 0 0 0 0 1.5h10.5a.75.75 0 0 0 0-1.5H8.75ZM6.5 12A1.25 1.25 0 1 1 4 12a1.25 1.25 0 0 1 2.5 0Zm2.25-.75a.75.75 0 0 0 0 1.5h10.5a.75.75 0 0 0 0-1.5H8.75Z" fill="#393C41"></path>
  </symbol>
  <symbol id="tds-icon-list--filled" viewBox="0 0 24 24" xmlns="http://www.w3.org/2000/svg">
    <path d="M5.5 8a1.5 1.5 0 1 0 0-3 1.5 1.5 0 0 0 0 3Zm0 11a1.5 1.5 0 1 0 0-3 1.5 1.5 0 0 0 0 3ZM8 6.5a1 1 0 0 1 1-1h10a1 1 0 1 1 0 2H9a1 1 0 0 1-1-1Zm1 10a1 1 0 1 0 0 2h10a1 1 0 1 0 0-2H9ZM7 12a1.5 1.5 0 1 1-3 0 1.5 1.5 0 0 1 3 0Zm2-1a1 1 0 1 0 0 2h10a1 1 0 1 0 0-2H9Z" fill="#393C41"></path>
  </symbol>
  <symbol id="tds-icon-loader" viewBox="0 0 48 48" xmlns="http://www.w3.org/2000/svg">
    <path d="M24 1a2.347 2.347 0 1 1 0 4.694 18.306 18.306 0 1 0 13.359 5.792 2.347 2.347 0 1 1 3.426-3.21A23 23 0 1 1 24 1Z" fill="#393C41"></path>
  </symbol>
  <symbol id="tds-icon-lock" viewBox="0 0 24 24" xmlns="http://www.w3.org/2000/svg">
    <path d="M17.75 10.025V7.75C17.75 4.58 15.17 2 12 2S6.25 4.58 6.25 7.75v2.275A2.491 2.491 0 0 0 4 12.5v7A2.5 2.5 0 0 0 6.5 22h11a2.5 2.5 0 0 0 2.5-2.5v-7a2.491 2.491 0 0 0-2.25-2.475zM12 3.5a4.255 4.255 0 0 1 4.25 4.25V10h-8.5V7.75A4.255 4.255 0 0 1 12 3.5zm6.5 16c0 .551-.449 1-1 1h-11c-.551 0-1-.449-1-1v-7c0-.551.449-1 1-1h11c.551 0 1 .449 1 1v7z" fill="#393C41"></path>
  </symbol>
  <symbol id="tds-icon-lock--filled" viewBox="0 0 24 24" xmlns="http://www.w3.org/2000/svg">
    <path d="M17.75 10.025V7.75C17.75 4.58 15.17 2 12 2S6.25 4.58 6.25 7.75v2.275A2.491 2.491 0 0 0 4 12.5v7A2.5 2.5 0 0 0 6.5 22h11a2.5 2.5 0 0 0 2.5-2.5v-7a2.491 2.491 0 0 0-2.25-2.475ZM12 3.5a4.255 4.255 0 0 1 4.25 4.25V10h-8.5V7.75A4.255 4.255 0 0 1 12 3.5Z" fill="#393C41"></path>
  </symbol>
  <symbol id="tds-icon-logo" viewBox="0 0 160 160" xmlns="http://www.w3.org/2000/svg">
    <g transform="translate(30 30)" fill="#393C41">
      <path d="M50 99.8l14-78.7c13.3 0 17.5 1.5 18.1 7.4 0 0 8.9-3.3 13.5-10.1C78 10.3 60.3 9.9 60.3 9.9L50 22.5 39.7 9.9s-17.7.4-35.3 8.5c4.5 6.8 13.5 10.1 13.5 10.1.6-6 4.8-7.4 18.1-7.4l14 78.7z" fill="#393C41"></path>
      <path d="M50 6.3c14.2-.1 30.5 2.2 47.2 9.5 2.2-4 2.8-5.8 2.8-5.8C81.8 2.7 64.7.3 50 .2 35.3.3 18.2 2.7 0 10c0 0 .8 2.2 2.8 5.8 16.7-7.3 33-9.6 47.2-9.5z" fill="#393C41"></path>
    </g>
  </symbol>
  <symbol id="tds-icon-logo-wordmark" viewBox="0 0 342 35" xmlns="http://www.w3.org/2000/svg">
    <path d="M0 .1a9.7 9.7 0 007 7h11l.5.1v27.6h6.8V7.3L26 7h11a9.8 9.8 0 007-7H0zm238.6 0h-6.8v34.8H263a9.7 9.7 0 006-6.8h-30.3V0zm-52.3 6.8c3.6-1 6.6-3.8 7.4-6.9l-38.1.1v20.6h31.1v7.2h-24.4a13.6 13.6 0 00-8.7 7h39.9v-21h-31.2v-7h24zm116.2 28h6.7v-14h24.6v14h6.7v-21h-38zM85.3 7h26a9.6 9.6 0 007.1-7H78.3a9.6 9.6 0 007 7zm0 13.8h26a9.6 9.6 0 007.1-7H78.3a9.6 9.6 0 007 7zm0 14.1h26a9.6 9.6 0 007.1-7H78.3a9.6 9.6 0 007 7zM308.5 7h26a9.6 9.6 0 007-7h-40a9.6 9.6 0 007 7z" fill="#393C41"></path>
  </symbol>
  <symbol id="tds-icon-mail" viewBox="0 0 24 24" xmlns="http://www.w3.org/2000/svg">
    <path d="M19.5 5h-15A2.5 2.5 0 0 0 2 7.5v9A2.5 2.5 0 0 0 4.5 19h15a2.5 2.5 0 0 0 2.5-2.5v-9A2.5 2.5 0 0 0 19.5 5zm-.06 1.5-6.205 6.204c-.66.66-1.81.66-2.47 0L4.56 6.5h14.878zm.06 11h-15c-.551 0-1-.449-1-1V7.56l6.204 6.205c.613.613 1.429.95 2.296.95s1.683-.337 2.296-.95L20.5 7.56V16.5c0 .551-.449 1-1 1z" fill="#393C41"></path>
  </symbol>
  <symbol id="tds-icon-mail--filled" viewBox="0 0 24 24" xmlns="http://www.w3.org/2000/svg">
    <path d="M12 14.714c.832 0 1.663-.316 2.296-.95l7.172-7.171c.12-.12.32-.088.38.07A2.4 2.4 0 0 1 22 7.5v9a2.5 2.5 0 0 1-2.5 2.5h-15A2.5 2.5 0 0 1 2 16.5v-9c0-.295.056-.576.153-.837.059-.158.26-.19.38-.07l7.171 7.172c.633.633 1.464.95 2.296.95zm1.235-2.01a1.75 1.75 0 0 1-2.47 0l-7.22-7.22c-.096-.095-.07-.256.055-.307A2.41 2.41 0 0 1 4.5 5h15c.32 0 .621.066.9.177.126.05.15.212.055.307z" fill="#393C41"></path>
  </symbol>
  <symbol id="tds-icon-menu" viewBox="0 0 24 24" xmlns="http://www.w3.org/2000/svg">
    <path d="M4 6.75A.75.75 0 0 1 4.75 6h14.5a.75.75 0 0 1 0 1.5H4.75A.75.75 0 0 1 4 6.75zm15.25 4.5H4.75a.75.75 0 0 0 0 1.5h14.5a.75.75 0 0 0 0-1.5zm0 5.25H4.75a.75.75 0 0 0 0 1.5h14.5a.75.75 0 0 0 0-1.5z" fill="#393C41"></path>
  </symbol>
  <symbol id="tds-icon-menu--filled" viewBox="0 0 24 24" xmlns="http://www.w3.org/2000/svg">
    <path d="M4 7a1 1 0 0 1 1-1h14a1 1 0 1 1 0 2H5a1 1 0 0 1-1-1Zm0 10a1 1 0 0 1 1-1h14a1 1 0 1 1 0 2H5a1 1 0 0 1-1-1Zm1-6a1 1 0 1 0 0 2h14a1 1 0 1 0 0-2H5Z" fill="#393C41"></path>
  </symbol>
  <symbol id="tds-icon-message" viewBox="0 0 24 24" xmlns="http://www.w3.org/2000/svg">
    <path d="M19.5 4h-15A2.5 2.5 0 0 0 2 6.5v9A2.5 2.5 0 0 0 4.5 18H7v2.07a.928.928 0 0 0 1.507.725l3.22-2.576A1 1 0 0 1 12.35 18H19.5a2.5 2.5 0 0 0 2.5-2.5v-9A2.5 2.5 0 0 0 19.5 4zm1 11.5a1 1 0 0 1-1 1h-7.15a2.5 2.5 0 0 0-1.56.548L8.5 18.879V17a.5.5 0 0 0-.5-.5H4.5a1 1 0 0 1-1-1v-9a1 1 0 0 1 1-1h15c.551 0 1 .449 1 1v9zM9 11a1 1 0 1 1-2 0 1 1 0 0 1 2 0zm4 0a1 1 0 1 1-2 0 1 1 0 0 1 2 0zm4 0a1 1 0 1 1-2 0 1 1 0 0 1 2 0z" fill="#393C41"></path>
  </symbol>
  <symbol id="tds-icon-message--filled" viewBox="0 0 24 24" xmlns="http://www.w3.org/2000/svg">
    <path d="M19.5 4h-15A2.5 2.5 0 0 0 2 6.5v9A2.5 2.5 0 0 0 4.5 18H6v2.07a.928.928 0 0 0 1.507.725l3.22-2.576A1 1 0 0 1 11.35 18h8.15a2.5 2.5 0 0 0 2.5-2.5v-9A2.5 2.5 0 0 0 19.5 4ZM8 12a1 1 0 1 1 0-2 1 1 0 0 1 0 2Zm4 0a1 1 0 1 1 0-2 1 1 0 0 1 0 2Zm4 0a1 1 0 1 1 0-2 1 1 0 0 1 0 2Z" fill="#393C41"></path>
  </symbol>
  <symbol id="tds-icon-minus" viewBox="0 0 24 24" xmlns="http://www.w3.org/2000/svg">
    <path d="M19 12a.75.75 0 0 1-.75.75H5.75a.75.75 0 0 1 0-1.5h12.5A.75.75 0 0 1 19 12z" fill="#393C41"></path>
  </symbol>
  <symbol id="tds-icon-minus--filled" viewBox="0 0 24 24" xmlns="http://www.w3.org/2000/svg">
    <path d="M5 12a1 1 0 0 1 1-1h12a1 1 0 1 1 0 2H6a1 1 0 0 1-1-1Z" fill="#393C41"></path>
  </symbol>
  <symbol id="tds-icon-payment" viewBox="0 0 24 24" xmlns="http://www.w3.org/2000/svg">
    <path d="M19.5 5h-15A2.5 2.5 0 0 0 2 7.5v9A2.5 2.5 0 0 0 4.5 19h15a2.5 2.5 0 0 0 2.5-2.5v-9A2.5 2.5 0 0 0 19.5 5Zm1 11.5c0 .551-.449 1-1 1h-15c-.551 0-1-.449-1-1V10h17v6.5Zm-17-8v-1c0-.551.449-1 1-1h15c.551 0 1 .449 1 1v1h-17ZM5 15.25a.75.75 0 0 1 .75-.75h3.5a.75.75 0 0 1 0 1.5h-3.5a.75.75 0 0 1-.75-.75Z" fill="#393C41"></path>
  </symbol>
  <symbol id="tds-icon-payment--filled" viewBox="0 0 24 24" xmlns="http://www.w3.org/2000/svg">
    <path d="M2.5 10h19a.5.5 0 0 1 .5.5v6a2.5 2.5 0 0 1-2.5 2.5h-15A2.5 2.5 0 0 1 2 16.5v-6a.5.5 0 0 1 .5-.5Zm3.25 6h3.5a.75.75 0 0 0 0-1.5h-3.5a.75.75 0 0 0 0 1.5zM4.5 5h15A2.5 2.5 0 0 1 22 7.5V8a.5.5 0 0 1-.5.5h-19A.5.5 0 0 1 2 8v-.5A2.5 2.5 0 0 1 4.5 5Z" fill="#393C41"></path>
  </symbol>
  <symbol id="tds-icon-minus-small" viewBox="0 0 16 16" xmlns="http://www.w3.org/2000/svg">
    <path d="M13 8a.75.75 0 0 1-.75.75h-8.5a.75.75 0 0 1 0-1.5h8.5A.75.75 0 0 1 13 8z" fill="#393C41"></path>
  </symbol>
  <symbol id="tds-icon-pause" viewBox="0 0 24 24" xmlns="http://www.w3.org/2000/svg">
    <path d="M9.25 3h-1.5A1.75 1.75 0 0 0 6 4.75v14.5c0 .967.784 1.75 1.75 1.75h1.5A1.75 1.75 0 0 0 11 19.25V4.75A1.75 1.75 0 0 0 9.25 3zm.25 16.25a.25.25 0 0 1-.25.25h-1.5a.25.25 0 0 1-.25-.25V4.75a.25.25 0 0 1 .25-.25h1.5a.25.25 0 0 1 .25.25v14.5zM16.25 3h-1.5A1.75 1.75 0 0 0 13 4.75v14.5c0 .967.784 1.75 1.75 1.75h1.5A1.75 1.75 0 0 0 18 19.25V4.75A1.75 1.75 0 0 0 16.25 3zm.25 16.25a.25.25 0 0 1-.25.25h-1.5a.25.25 0 0 1-.25-.25V4.75a.25.25 0 0 1 .25-.25h1.5a.25.25 0 0 1 .25.25v14.5z" fill="#393C41"></path>
  </symbol>
  <symbol id="tds-icon-pause--filled" viewBox="0 0 24 24" xmlns="http://www.w3.org/2000/svg">
    <path d="M11 4.75v14.5A1.75 1.75 0 0 1 9.25 21h-1.5A1.75 1.75 0 0 1 6 19.25V4.75C6 3.784 6.784 3 7.75 3h1.5c.966 0 1.75.784 1.75 1.75zM16.25 3h-1.5A1.75 1.75 0 0 0 13 4.75v14.5c0 .966.784 1.75 1.75 1.75h1.5A1.75 1.75 0 0 0 18 19.25V4.75A1.75 1.75 0 0 0 16.25 3z" fill="#393C41"></path>
  </symbol>
  <symbol id="tds-icon-mute" viewBox="0 0 24 24" xmlns="http://www.w3.org/2000/svg">
    <path d="M11.995 4.133a.983.983 0 0 0-.635.234L7 8H4a1 1 0 0 0-1 1v6a1 1 0 0 0 1 1h3l4.36 3.633a1 1 0 0 0 1.64-.768V5.135a1 1 0 0 0-1.005-1.002zM11.5 17.797l-3.54-2.95A1.5 1.5 0 0 0 7 14.5H4.5v-5H7c.35 0 .69-.123.96-.348l3.54-2.95v11.595zm9.28-4.077a.75.75 0 1 1-1.06 1.06L18 13.06l-1.72 1.72a.748.748 0 0 1-1.06 0 .75.75 0 0 1 0-1.06L16.94 12l-1.72-1.72a.75.75 0 1 1 1.06-1.06L18 10.94l1.72-1.72a.75.75 0 1 1 1.06 1.06L19.06 12l1.72 1.72z" fill="#393C41"></path>
  </symbol>
  <symbol id="tds-icon-mute--filled" viewBox="0 0 24 24" xmlns="http://www.w3.org/2000/svg">
    <path d="M13 5.135v13.73a1 1 0 0 1-1.64.768L7 16H4a1 1 0 0 1-1-1V9a1 1 0 0 1 1-1h3l4.36-3.633a1 1 0 0 1 1.64.768zM19.06 12l1.72-1.72a.75.75 0 1 0-1.06-1.06L18 10.94l-1.72-1.72a.75.75 0 1 0-1.06 1.06L16.94 12l-1.72 1.72a.75.75 0 1 0 1.06 1.06L18 13.06l1.72 1.72a.748.748 0 0 0 1.06 0 .75.75 0 0 0 0-1.06L19.06 12z" fill="#393C41"></path>
  </symbol>
  <symbol id="tds-icon-pdf" viewBox="0 0 24 24" xmlns="http://www.w3.org/2000/svg">
    <path d="m19.413 8.403-5.827-5.818A2 2 0 0 0 12.173 2H6.5A2.5 2.5 0 0 0 4 4.5v15A2.5 2.5 0 0 0 6.5 22h11a2.5 2.5 0 0 0 2.5-2.5V9.818a2 2 0 0 0-.587-1.415zM18.5 19.5c0 .551-.449 1-1 1h-11c-.551 0-1-.449-1-1v-15c0-.551.449-1 1-1h5.673c.133 0 .258.052.353.146l5.827 5.818a.504.504 0 0 1 .147.354V19.5zm-4.917-5.794-.066.007a8.39 8.39 0 0 1-1.28-1.682c.257-.75.406-1.533.44-2.328 0-.756-.306-1.563-1.17-1.563a.915.915 0 0 0-.76.444c-.347.609-.221 1.8.319 3.04a20.177 20.177 0 0 1-1.345 3.13c-1.168.486-2.57 1.23-2.703 2.03-.06.29.038.596.258.799.213.179.482.277.759.277h.008c.855 0 1.78-.873 2.828-2.666a18.71 18.71 0 0 1 2.357-.624c1.05.9 1.988 1.091 2.593 1.091.789 0 1.032-.377 1.103-.591a.826.826 0 0 0-.16-.927c-.717-.745-2.505-.523-3.18-.437zm-5.699 3.423a.279.279 0 0 1-.125-.041c-.045-.03-.064-.087-.042-.151.068-.32.667-.78 1.588-1.228-.609.934-1.168 1.42-1.42 1.42zm3.485-8.194a.189.189 0 0 1 .14-.092c.185 0 .212.292.212.46-.023.49-.104.974-.243 1.443-.293-.924-.23-1.59-.109-1.811zm1.028 4.997a18.18 18.18 0 0 0-.986.26c.18-.393.344-.794.49-1.198.208.313.443.611.698.889l-.202.05zm3.496.745a.24.24 0 0 1-.11.157c-.068.046-.22.115-.501.043a3.735 3.735 0 0 1-1.215-.572c.468-.056 1.071-.081 1.504 0 .171.044.367.143.323.367l-.001.005z" fill="#393C41"></path>
  </symbol>
  <symbol id="tds-icon-pdf--filled" viewBox="0 0 24 24" xmlns="http://www.w3.org/2000/svg">
    <path d="m13.586 2.585 5.827 5.818A2 2 0 0 1 20 9.818V19.5a2.5 2.5 0 0 1-2.5 2.5h-11A2.5 2.5 0 0 1 4 19.5v-15A2.5 2.5 0 0 1 6.5 2h5.672a2 2 0 0 1 1.414.585zm2.235 13.077c.789 0 1.032-.378 1.103-.592a.826.826 0 0 0-.16-.927c-.717-.745-2.505-.523-3.18-.437l-.066.007a8.385 8.385 0 0 1-1.282-1.682 8.27 8.27 0 0 0 .442-2.328c0-.756-.307-1.563-1.171-1.563a.915.915 0 0 0-.76.444c-.347.609-.221 1.8.319 3.04a20.176 20.176 0 0 1-1.345 3.13c-1.168.486-2.57 1.23-2.703 2.03-.06.29.038.596.258.799.213.179.482.277.759.277h.008c.855 0 1.78-.873 2.828-2.666a18.64 18.64 0 0 1 2.357-.624c1.05.9 1.988 1.091 2.593 1.091zm-4.099-6.358c0-.169-.028-.46-.212-.46a.189.189 0 0 0-.14.091c-.122.221-.185.887.108 1.811.14-.469.22-.953.244-1.442zm-.311 4.888c.351-.106.724-.196.986-.26l.039-.009.163-.04a7.165 7.165 0 0 1-.698-.889c-.146.404-.31.805-.49 1.198zm-3.652 2.896c-.045-.03-.064-.087-.042-.151.068-.32.667-.78 1.588-1.228-.609.934-1.168 1.42-1.42 1.42a.28.28 0 0 1-.126-.041Zm7.811-2.782c-.432-.082-1.035-.057-1.503-.001.368.263.776.456 1.215.572.28.072.432.003.5-.043a.24.24 0 0 0 .11-.157l.002-.005c.044-.225-.152-.323-.323-.366z" fill="#393C41"></path>
  </symbol>
  <symbol id="tds-icon-pencil" viewBox="0 0 24 24" xmlns="http://www.w3.org/2000/svg">
    <path d="M15.474 5.697a.498.498 0 0 0-.707 0L4.396 16.07a1 1 0 0 0-.279.538l-.541 3.155a.574.574 0 0 0 .662.662l3.155-.541a1 1 0 0 0 .538-.279L18.303 9.233a.5.5 0 0 0 0-.707l-2.829-2.829zM6.983 18.431l-1.707.293.293-1.707 9.552-9.552 1.414 1.414-9.552 9.552zM20.56 6.975l-.636.636a.498.498 0 0 1-.707 0l-2.829-2.829a.5.5 0 0 1 0-.707l.636-.636a1.495 1.495 0 0 1 2.121 0l1.415 1.415a1.5 1.5 0 0 1 0 2.12z" fill="#393C41"></path>
  </symbol>
  <symbol id="tds-icon-pencil--filled" viewBox="0 0 24 24" xmlns="http://www.w3.org/2000/svg">
    <path d="m19.146 3.44 1.415 1.414a1.5 1.5 0 0 1 0 2.12l-.636.637a.498.498 0 0 1-.707 0l-2.829-2.829a.5.5 0 0 1 0-.707l.636-.636A1.495 1.495 0 0 1 18.085 3c.385 0 .769.146 1.061.44Zm-4.379 2.257a.5.5 0 0 1 .707 0l2.829 2.829a.5.5 0 0 1 0 .707L7.93 19.604a.999.999 0 0 1-.538.279l-3.155.541a.573.573 0 0 1-.662-.662l.541-3.155a1 1 0 0 1 .279-.538L14.767 5.697Z" fill="#393C41"></path>
  </symbol>
  <symbol id="tds-icon-person" viewBox="0 0 24 24" xmlns="http://www.w3.org/2000/svg">
    <path d="M12 2C6.477 2 2 6.477 2 12s4.477 10 10 10 10-4.477 10-10S17.523 2 12 2zM6.858 18.752c.605-1.868 2.722-3.24 5.142-3.24 2.42 0 4.537 1.372 5.142 3.24C15.712 19.844 13.933 20.5 12 20.5s-3.712-.656-5.142-1.748zm11.469-1.095c-1.02-2.165-3.483-3.645-6.327-3.645s-5.307 1.48-6.327 3.645A8.456 8.456 0 0 1 3.5 12c0-4.687 3.813-8.5 8.5-8.5 4.687 0 8.5 3.813 8.5 8.5a8.456 8.456 0 0 1-2.173 5.657zM12 6a3.5 3.5 0 1 0 0 7 3.5 3.5 0 0 0 0-7zm0 5.5c-1.103 0-2-.897-2-2s.897-2 2-2 2 .897 2 2-.897 2-2 2z" fill="#393C41"></path>
  </symbol>
  <symbol id="tds-icon-person--filled" viewBox="0 0 24 24" xmlns="http://www.w3.org/2000/svg">
    <path d="M2 12C2 6.477 6.477 2 12 2s10 4.477 10 10-4.477 10-10 10S2 17.523 2 12Zm10 2.762c2.687 0 4.956 1.455 5.763 3.468A8.47 8.47 0 0 0 20.5 12c0-4.687-3.813-8.5-8.5-8.5-4.687 0-8.5 3.813-8.5 8.5a8.469 8.469 0 0 0 2.737 6.23c.806-2.013 3.076-3.468 5.763-3.468ZM15.5 9.5a3.5 3.5 0 1 1-7 0 3.5 3.5 0 0 1 7 0z" fill="#393C41"></path>
  </symbol>
  <symbol id="tds-icon-phone" viewBox="0 0 24 24" xmlns="http://www.w3.org/2000/svg">
    <path d="M19.563 15.128c-1.446-1.164-2.318-1.79-3.13-1.79-.637 0-1.237.384-2.047 1.195-.234.234-.456.347-.697.347-.599 0-1.31-.701-2.582-1.976-1.784-1.787-2.415-2.442-1.599-3.26 1.82-1.822 1.478-2.604-.594-5.185-.832-1.037-1.444-1.448-2-1.448a1.19 1.19 0 0 0-.421.079c-.661.244-1.3 1.027-2.222 1.951-1.688 1.69-2.638 5.312 3.435 11.259 3.61 3.535 6.313 4.69 8.266 4.69 1.331 0 2.314-.538 2.997-1.223 1.85-1.854 3.17-2.564.594-4.64zm-1.048 2.986a44.21 44.21 0 0 0-.607.594c-.518.518-1.17.781-1.936.781-1.307 0-3.62-.74-7.217-4.261-3.503-3.43-4.247-5.725-4.255-7.046-.005-.823.275-1.523.832-2.081.205-.205.396-.403.576-.59.33-.343.766-.795 1.009-.96.128.086.394.307.827.847 1.731 2.156 1.731 2.156.702 3.187-1.885 1.888-.114 3.662 1.6 5.379 1.504 1.507 2.412 2.416 3.643 2.416.646 0 1.237-.265 1.759-.787.745-.747.975-.755.985-.755.378 0 1.601.985 2.189 1.458.535.431.753.696.839.823-.164.24-.61.67-.946.995z" fill="#393C41"></path>
  </symbol>
  <symbol id="tds-icon-phone--filled" viewBox="0 0 24 24" xmlns="http://www.w3.org/2000/svg">
    <path d="M19.563 15.128c-2.577-2.075-3.332-2.442-5.177-.595-.816.818-1.495.158-3.28-1.63-1.783-1.786-2.414-2.441-1.598-3.259 1.82-1.822 1.478-2.604-.594-5.185C7.867 3.154 7.17 2.84 6.493 3.09c-.661.245-1.3 1.028-2.222 1.952-1.688 1.69-2.638 5.312 3.435 11.259 6.073 5.946 9.577 5.157 11.263 3.467 1.85-1.854 3.17-2.564.594-4.64Z" fill="#393C41"></path>
  </symbol>
  <symbol id="tds-icon-photo" viewBox="0 0 24 24" xmlns="http://www.w3.org/2000/svg">
    <path d="M19.5 5h-15A2.5 2.5 0 0 0 2 7.5v9A2.5 2.5 0 0 0 4.5 19h15a2.5 2.5 0 0 0 2.5-2.5v-9A2.5 2.5 0 0 0 19.5 5zm-15 1.5h15c.551 0 1 .449 1 1v5.28l-2.91-2.25c-.849-.85-2.331-.85-3.18 0l-4.233 4.233a.25.25 0 0 1-.354 0L8.591 13.53a2.253 2.253 0 0 0-3.182 0L3.5 15.44V7.5c0-.551.449-1 1-1zm15 11h-15a.99.99 0 0 1-.67-.269l2.64-2.64a.75.75 0 0 1 1.06 0l1.233 1.232a1.753 1.753 0 0 0 2.474 0l4.233-4.232c.294-.291.77-.29 1.132.062l3.898 3.02V16.5c0 .551-.449 1-1 1zM5 9.5a1.5 1.5 0 1 1 3 0 1.5 1.5 0 0 1-3 0z" fill="#393C41"></path>
  </symbol>
  <symbol id="tds-icon-photo--filled" viewBox="0 0 24 24" xmlns="http://www.w3.org/2000/svg">
    <path d="M4.5 5h15A2.5 2.5 0 0 1 22 7.5v9a2.5 2.5 0 0 1-2.5 2.5h-15A2.5 2.5 0 0 1 2 16.5v-9A2.5 2.5 0 0 1 4.5 5Zm15 1.5h-15c-.551 0-1 .449-1 1v7.94l1.91-1.91a2.253 2.253 0 0 1 3.18 0l1.233 1.233a.25.25 0 0 0 .354 0l4.232-4.233c.85-.85 2.332-.85 3.182 0l2.909 2.25V7.5c0-.551-.449-1-1-1zM8 9.5a1.5 1.5 0 1 1-3 0 1.5 1.5 0 0 1 3 0z" fill="#393C41"></path>
  </symbol>
  <symbol id="tds-icon-pin" viewBox="0 0 24 24" xmlns="http://www.w3.org/2000/svg">
    <path d="M12 2a7 7 0 0 0-7 7c0 4.001 3.35 9.528 5.416 12.217.4.522.992.783 1.584.783s1.183-.261 1.584-.783C15.65 18.528 19 13 19 9A7 7 0 0 0 12 2zm.395 18.303c-.132.171-.304.197-.395.197s-.263-.026-.395-.197C9.553 17.631 6.5 12.416 6.5 9.001 6.5 5.968 8.967 3.5 12 3.5s5.5 2.468 5.5 5.5c0 3.416-3.053 8.631-5.105 11.303zM12 6a3 3 0 1 0 0 6 3 3 0 0 0 0-6zm0 4.5c-.827 0-1.5-.673-1.5-1.5s.673-1.5 1.5-1.5 1.5.673 1.5 1.5-.673 1.5-1.5 1.5z" fill="#393C41"></path>
  </symbol>
  <symbol id="tds-icon-pin--filled" viewBox="0 0 24 24" xmlns="http://www.w3.org/2000/svg">
    <path d="M12 2a7 7 0 0 0-7 7c0 4.001 3.35 9.528 5.416 12.217a1.995 1.995 0 0 0 3.168 0C15.65 18.528 19 13 19 9a7 7 0 0 0-7-7Zm0 10a3 3 0 1 1 0-6 3 3 0 0 1 0 6Z" fill="#393C41"></path>
  </symbol>
  <symbol id="tds-icon-play" viewBox="0 0 24 24" xmlns="http://www.w3.org/2000/svg">
    <path d="M19.057 10.38 6.815 3.253A1.857 1.857 0 0 0 5.882 3c-.978 0-1.875.782-1.875 1.874v14.252c0 1.092.897 1.874 1.875 1.874.312 0 .631-.08.933-.254l12.242-7.125c1.248-.72 1.248-2.522 0-3.242zm-.755 1.944L6.065 19.447a.36.36 0 0 1-.183.053c-.151 0-.375-.119-.375-.374V4.874c0-.255.224-.374.375-.374.062 0 .122.017.178.05l12.247 7.128c.153.089.186.224.186.322s-.033.233-.19.324z" fill="#393C41"></path>
  </symbol>
  <symbol id="tds-icon-play--filled" viewBox="0 0 24 24" xmlns="http://www.w3.org/2000/svg">
    <path d="M19.057 13.62 6.815 20.747c-1.248.72-2.808-.18-2.808-1.62V4.874c0-1.44 1.56-2.34 2.808-1.62l12.242 7.125c1.247.72 1.247 2.521 0 3.242z" fill="#393C41"></path>
  </symbol>
  <symbol id="tds-icon-plus" viewBox="0 0 24 24" xmlns="http://www.w3.org/2000/svg">
    <path d="M20 12a.75.75 0 0 1-.75.75h-6.5v6.5a.75.75 0 0 1-1.5 0v-6.5h-6.5a.75.75 0 0 1 0-1.5h6.5v-6.5a.75.75 0 0 1 1.5 0v6.5h6.5A.75.75 0 0 1 20 12z" fill="#393C41"></path>
  </symbol>
  <symbol id="tds-icon-plus--filled" viewBox="0 0 24 24" xmlns="http://www.w3.org/2000/svg">
    <path d="M13 5a1 1 0 1 0-2 0v6H5a1 1 0 1 0 0 2h6v6a1 1 0 1 0 2 0v-6h6a1 1 0 1 0 0-2h-6V5Z" fill="#393C41"></path>
  </symbol>
  <symbol id="tds-icon-plus-small" viewBox="0 0 16 16" xmlns="http://www.w3.org/2000/svg">
    <path d="M13 8a.75.75 0 0 1-.75.75h-3.5v3.5a.75.75 0 0 1-1.5 0v-3.5h-3.5a.75.75 0 0 1 0-1.5h3.5v-3.5a.75.75 0 0 1 1.5 0v3.5h3.5A.75.75 0 0 1 13 8z" fill="#393C41"></path>
  </symbol>
  <symbol id="tds-icon-printer" viewBox="0 0 24 24" xmlns="http://www.w3.org/2000/svg">
    <path d="M18.5 6H17V4.75A1.75 1.75 0 0 0 15.25 3h-6.5A1.75 1.75 0 0 0 7 4.75V6H5.5A2.5 2.5 0 0 0 3 8.5v7A2.5 2.5 0 0 0 5.5 18h1v1.25c0 .966.784 1.75 1.75 1.75h7.5a1.75 1.75 0 0 0 1.75-1.75V18h1a2.5 2.5 0 0 0 2.5-2.5v-7A2.5 2.5 0 0 0 18.5 6zm-10-1.25a.25.25 0 0 1 .25-.25h6.5a.25.25 0 0 1 .25.25V6h-7V4.75zm7.5 14.5a.25.25 0 0 1-.25.25h-7.5a.25.25 0 0 1-.25-.25V13.5h8v5.75zm3.5-3.75c0 .551-.449 1-1 1h-1v-3h.25a.75.75 0 0 0 0-1.5H6.25a.75.75 0 0 0 0 1.5h.25v3h-1c-.551 0-1-.449-1-1v-7c0-.551.449-1 1-1h13c.551 0 1 .449 1 1v7zm-1-6.25a.75.75 0 1 1-1.5 0 .75.75 0 0 1 1.5 0zm-9 6.075a.5.5 0 0 1 .5-.5h4a.5.5 0 1 1 0 1h-4a.5.5 0 0 1-.5-.5zm0 2.35a.5.5 0 0 1 .5-.5h4a.5.5 0 1 1 0 1h-4a.5.5 0 0 1-.5-.5z" fill="#393C41"></path>
  </symbol>
  <symbol id="tds-icon-printer--filled" viewBox="0 0 24 24" xmlns="http://www.w3.org/2000/svg">
    <path d="M17 6h1.5A2.5 2.5 0 0 1 21 8.5v7a2.5 2.5 0 0 1-2.5 2.5h-1v1.25A1.75 1.75 0 0 1 15.75 21h-7.5a1.75 1.75 0 0 1-1.75-1.75V18h-1A2.5 2.5 0 0 1 3 15.5v-7A2.5 2.5 0 0 1 5.5 6H7V4.75C7 3.784 7.784 3 8.75 3h6.5c.966 0 1.75.784 1.75 1.75ZM8.75 4.5a.25.25 0 0 0-.25.25V6h7V4.75a.25.25 0 0 0-.25-.25Zm7 15a.25.25 0 0 0 .25-.25V13.5H8v5.75c0 .138.112.25.25.25zM17 9.25a.75.75 0 1 0 1.5 0 .75.75 0 0 0-1.5 0zm-7 6.575h4a.5.5 0 1 0 0-1h-4a.5.5 0 1 0 0 1zm0 2.35h4a.5.5 0 1 0 0-1h-4a.5.5 0 1 0 0 1z" fill="#393C41"></path>
  </symbol>
  <symbol id="tds-icon-recurring" viewBox="0 0 24 24" xmlns="http://www.w3.org/2000/svg">
    <path d="M5.1 12.997a7.002 7.002 0 0 0 12.617 3.085c.288-.4.875-.49 1.222-.143a.69.69 0 0 1 .095.878 8.501 8.501 0 0 1-15.446-3.819L2.109 13c-.097 0-.146-.14-.077-.214l2.06-2.217a.208.208 0 0 1 .309 0l2.067 2.225c.069.074.02.202-.078.201l-1.29.002Zm13.86-1.994A7.001 7.001 0 0 0 6.32 7.95c-.286.402-.875.495-1.224.146a.689.689 0 0 1-.097-.874 8.501 8.501 0 0 1 15.473 3.78L21.89 11c.097 0 .146.14.077.214l-2.06 2.217a.208.208 0 0 1-.309 0l-2.067-2.225c-.069-.074-.02-.202.078-.201l1.35-.002Z" fill="#393C41"></path>
  </symbol>
  <symbol id="tds-icon-recurring--filled" viewBox="0 0 24 24" xmlns="http://www.w3.org/2000/svg">
    <path d="M5.353 12.997a6.752 6.752 0 0 0 11.987 3.17c.404-.513 1.187-.64 1.65-.178.312.313.376.803.115 1.16A8.751 8.751 0 0 1 3.336 13H2.11c-.097 0-.146-.14-.077-.214l2.06-2.217a.208.208 0 0 1 .309 0l2.067 2.225c.069.074.02.202-.078.201l-1.037.002Zm13.354-1.994a6.752 6.752 0 0 0-12.01-3.142c-.402.518-1.188.648-1.652.184-.312-.312-.376-.798-.118-1.155a8.751 8.751 0 0 1 15.797 4.112L21.89 11c.097 0 .146.14.077.214l-2.06 2.217a.208.208 0 0 1-.309 0l-2.067-2.225c-.069-.074-.02-.202.078-.201l1.097-.002Z" fill="#393C41"></path>
  </symbol>
  <symbol id="tds-icon-reload" viewBox="0 0 24 24" xmlns="http://www.w3.org/2000/svg">
    <path d="M12 5a7.003 7.003 0 0 0-6.72 5.035h.003A7.036 7.036 0 0 0 5 12.004l1.39.002c.098 0 .147.127.078.2L4.4 14.432a.208.208 0 0 1-.31 0l-2.059-2.217c-.069-.074-.02-.214.077-.214l1.391.002a8.642 8.642 0 0 1 .033-.752 8.5 8.5 0 1 1 3.01 7.267c-.318-.266-.316-.744-.023-1.037.293-.293.765-.29 1.088-.03A7 7 0 1 0 12 5Z" fill="#393C41"></path>
  </symbol>
  <symbol id="tds-icon-reload--filled" viewBox="0 0 24 24" xmlns="http://www.w3.org/2000/svg">
    <path d="M12 5.25A6.75 6.75 0 0 0 5.25 12v.003l1.14.002c.098 0 .147.127.078.2L4.4 14.432a.208.208 0 0 1-.31 0l-2.059-2.217c-.069-.074-.02-.214.077-.214l1.141.001V12a8.75 8.75 0 1 1 3.309 6.853c-.433-.344-.43-.982-.04-1.373.391-.39 1.02-.383 1.465-.054A6.75 6.75 0 1 0 12 5.25Z" fill="#393C41"></path>
  </symbol>
  <symbol id="tds-icon-search" viewBox="0 0 24 24" xmlns="http://www.w3.org/2000/svg">
    <path d="m20.267 19.207-4.818-4.818A6.967 6.967 0 0 0 17 10a7 7 0 1 0-7 7 6.967 6.967 0 0 0 4.389-1.55l4.818 4.817a.748.748 0 0 0 1.06 0 .75.75 0 0 0 0-1.06zM4.5 10c0-3.033 2.467-5.5 5.5-5.5s5.5 2.467 5.5 5.5-2.467 5.5-5.5 5.5-5.5-2.467-5.5-5.5z" fill="#393C41"></path>
  </symbol>
  <symbol id="tds-icon-search--filled" viewBox="0 0 24 24" xmlns="http://www.w3.org/2000/svg">
    <path d="m20.257 18.843-4.65-4.65a7 7 0 1 0-1.414 1.414l4.65 4.65a1 1 0 0 0 1.414-1.414zM10 15a5 5 0 1 1 0-10 5 5 0 0 1 0 10z" fill="#393C41"></path>
  </symbol>
  <symbol id="tds-icon-smartphone" viewBox="0 0 24 24" xmlns="http://www.w3.org/2000/svg">
    <path d="M15.5 2h-7A2.5 2.5 0 0 0 6 4.5v15A2.5 2.5 0 0 0 8.5 22h7a2.5 2.5 0 0 0 2.5-2.5v-15A2.5 2.5 0 0 0 15.5 2zm1 17.5c0 .551-.449 1-1 1h-7c-.551 0-1-.449-1-1v-15c0-.551.449-1 1-1H10V4a.5.5 0 0 0 .5.5h3A.5.5 0 0 0 14 4v-.5h1.5c.551 0 1 .449 1 1v15z" fill="#393C41"></path>
  </symbol>
  <symbol id="tds-icon-smartphone--filled" viewBox="0 0 24 24" xmlns="http://www.w3.org/2000/svg">
    <path d="M16.5 2h-9A2.5 2.5 0 0 0 5 4.5v15A2.5 2.5 0 0 0 7.5 22h9a2.5 2.5 0 0 0 2.5-2.5v-15A2.5 2.5 0 0 0 16.5 2zm.5 17.5a.5.5 0 0 1-.5.5h-9a.5.5 0 0 1-.5-.5v-15a.5.5 0 0 1 .5-.5H10v1a.5.5 0 0 0 .5.5h3A.5.5 0 0 0 14 5V4h2.5a.5.5 0 0 1 .5.5v15z" fill="#393C41"></path>
  </symbol>
  <symbol id="tds-icon-speaker" viewBox="0 0 24 24" xmlns="http://www.w3.org/2000/svg">
    <path d="M11.995 4.133a.983.983 0 0 0-.635.234L7 8H4a1 1 0 0 0-1 1v6a1 1 0 0 0 1 1h3l4.36 3.633a1 1 0 0 0 1.64-.768V5.135a1 1 0 0 0-1.005-1.002zM11.5 17.797l-3.54-2.95A1.5 1.5 0 0 0 7 14.5H4.5v-5H7c.35 0 .69-.123.96-.348l3.54-2.95v11.595z" fill="#393C41"></path>
  </symbol>
  <symbol id="tds-icon-speaker--filled" viewBox="0 0 24 24" xmlns="http://www.w3.org/2000/svg">
    <path d="M13 5.135v13.73a1 1 0 0 1-1.64.768L7 16H4a1 1 0 0 1-1-1V9a1 1 0 0 1 1-1h3l4.36-3.633a1 1 0 0 1 1.64.768z" fill="#393C41"></path>
  </symbol>
  <symbol id="tds-icon-speaker--filled--mute" viewBox="0 0 24 24" xmlns="http://www.w3.org/2000/svg">
    <path d="M13 5.135v13.73a1 1 0 0 1-1.64.768L7 16H4a1 1 0 0 1-1-1V9a1 1 0 0 1 1-1h3l4.36-3.633a1 1 0 0 1 1.64.768zM19.06 12l1.72-1.72a.75.75 0 1 0-1.06-1.06L18 10.94l-1.72-1.72a.75.75 0 1 0-1.06 1.06L16.94 12l-1.72 1.72a.75.75 0 1 0 1.06 1.06L18 13.06l1.72 1.72a.748.748 0 0 0 1.06 0 .75.75 0 0 0 0-1.06L19.06 12z" fill="#393C41"></path>
  </symbol>
  <symbol id="tds-icon-speaker--filled--low" viewBox="0 0 24 24" xmlns="http://www.w3.org/2000/svg">
    <path d="M13 5.135v13.73a1 1 0 0 1-1.64.768L7 16H4a1 1 0 0 1-1-1V9a1 1 0 0 1 1-1h3l4.36-3.633a1 1 0 0 1 1.64.768zm3.44 2.902a.75.75 0 1 0-1.34.676c.517 1.023.779 2.129.779 3.287s-.262 2.264-.778 3.287a.75.75 0 1 0 1.34.676c.622-1.235.938-2.568.938-3.963s-.316-2.728-.939-3.963z" fill="#393C41"></path>
  </symbol>
  <symbol id="tds-icon-speaker--filled--high" viewBox="0 0 24 24" xmlns="http://www.w3.org/2000/svg">
    <path d="M13.002 5.135v13.73a1 1 0 0 1-1.64.768L7.002 16h-3a1 1 0 0 1-1-1V9a1 1 0 0 1 1-1h3l4.36-3.633a1 1 0 0 1 1.64.768zm2.433 2.57a.75.75 0 0 0-.332 1.007c.516 1.025.778 2.131.778 3.288s-.262 2.263-.778 3.288a.75.75 0 0 0 1.34.674c.622-1.236.938-2.569.938-3.962s-.316-2.726-.938-3.962a.75.75 0 0 0-1.008-.333zm4.033-2.167a.75.75 0 1 0-1.34.674c.91 1.805 1.37 3.752 1.37 5.788s-.46 3.983-1.37 5.788a.75.75 0 0 0 1.34.674c1.016-2.016 1.53-4.19 1.53-6.462s-.514-4.446-1.53-6.462z" fill="#393C41"></path>
  </symbol>
  <symbol id="tds-icon-speaker--mute" viewBox="0 0 24 24" xmlns="http://www.w3.org/2000/svg">
    <path d="M11.995 4.133a.983.983 0 0 0-.635.234L7 8H4a1 1 0 0 0-1 1v6a1 1 0 0 0 1 1h3l4.36 3.633a1 1 0 0 0 1.64-.768V5.135a1 1 0 0 0-1.005-1.002zM11.5 17.797l-3.54-2.95A1.5 1.5 0 0 0 7 14.5H4.5v-5H7c.35 0 .69-.123.96-.348l3.54-2.95v11.595zm9.28-4.077a.75.75 0 1 1-1.06 1.06L18 13.06l-1.72 1.72a.748.748 0 0 1-1.06 0 .75.75 0 0 1 0-1.06L16.94 12l-1.72-1.72a.75.75 0 1 1 1.06-1.06L18 10.94l1.72-1.72a.75.75 0 1 1 1.06 1.06L19.06 12l1.72 1.72z" fill="#393C41"></path>
  </symbol>
  <symbol id="tds-icon-speaker--low" viewBox="0 0 24 24" xmlns="http://www.w3.org/2000/svg">
    <path d="M11.995 4.133a.983.983 0 0 0-.635.234L7 8H4a1 1 0 0 0-1 1v6a1 1 0 0 0 1 1h3l4.36 3.633a1 1 0 0 0 1.64-.768V5.135a1 1 0 0 0-1.005-1.002zM11.5 17.797l-3.54-2.95A1.5 1.5 0 0 0 7 14.5H4.5v-5H7c.35 0 .69-.123.96-.348l3.54-2.95v11.595zM17.379 12a8.719 8.719 0 0 1-.939 3.963.75.75 0 0 1-1.34-.676c.517-1.023.779-2.129.779-3.287s-.262-2.264-.778-3.287a.75.75 0 1 1 1.34-.676A8.719 8.719 0 0 1 17.378 12z" fill="#393C41"></path>
  </symbol>
  <symbol id="tds-icon-speaker--high" viewBox="0 0 24 24" xmlns="http://www.w3.org/2000/svg">
    <path d="M11.995 4.133a.983.983 0 0 0-.635.234L7 8H4a1 1 0 0 0-1 1v6a1 1 0 0 0 1 1h3l4.36 3.633a1 1 0 0 0 1.64-.768V5.135a1 1 0 0 0-1.005-1.002zM11.5 17.797l-3.54-2.95A1.5 1.5 0 0 0 7 14.5H4.5v-5H7c.35 0 .69-.123.96-.348l3.54-2.95v11.595zm4.94-9.76c.623 1.237.939 2.57.939 3.963s-.316 2.726-.938 3.962a.75.75 0 1 1-1.34-.674c.516-1.025.778-2.131.778-3.288s-.262-2.263-.778-3.288a.75.75 0 0 1 1.34-.674zM20.998 12a14.24 14.24 0 0 1-1.53 6.462.75.75 0 1 1-1.34-.674c.909-1.805 1.37-3.752 1.37-5.788s-.461-3.983-1.37-5.788a.75.75 0 0 1 1.34-.674A14.234 14.234 0 0 1 20.996 12z" fill="#393C41"></path>
  </symbol>
  <symbol id="tds-icon-status-error" viewBox="0 0 24 24" xmlns="http://www.w3.org/2000/svg">
    <circle fill="#FFFFFF" cx="12" cy="12" r="6"></circle>
    <path d="M12 2C6.477 2 2 6.477 2 12s4.477 10 10 10 10-4.477 10-10S17.523 2 12 2zm-.75 6.75a.75.75 0 0 1 1.5 0v4.5a.75.75 0 0 1-1.5 0v-4.5zM12 17a1 1 0 1 1 0-2 1 1 0 0 1 0 2z" fill="#ED4E3B"></path>
  </symbol>
  <symbol id="tds-icon-status-error-small" viewBox="0 0 16 16" xmlns="http://www.w3.org/2000/svg">
    <circle fill="#FFFFFF" cx="8" cy="8" r="3"></circle>
    <path d="M8 2a6 6 0 1 0 0 12A6 6 0 0 0 8 2zm-.75 3.75a.75.75 0 0 1 1.5 0V7.5a.75.75 0 0 1-1.5 0V5.75zM8 11a1 1 0 1 1 0-2 1 1 0 0 1 0 2z" fill="#ED4E3B"></path>
  </symbol>
  <symbol id="tds-icon-status-info" viewBox="0 0 24 24" xmlns="http://www.w3.org/2000/svg">
    <circle fill="#FFFFFF" cx="12" cy="12" r="6"></circle>
    <path d="M12 2C6.477 2 2 6.477 2 12s4.477 10 10 10 10-4.477 10-10S17.523 2 12 2zm.75 14.25a.75.75 0 0 1-1.5 0v-4.5a.75.75 0 0 1 1.5 0v4.5zM12 10a1 1 0 1 1 0-2 1 1 0 0 1 0 2z" fill="#3E6AE1"></path>
  </symbol>
  <symbol id="tds-icon-status-info-small" viewBox="0 0 16 16" xmlns="http://www.w3.org/2000/svg">
    <circle fill="#FFFFFF" cx="8" cy="8" r="3"></circle>
    <path d="M8 2a6 6 0 1 0 0 12A6 6 0 0 0 8 2zm.75 8.25a.75.75 0 0 1-1.5 0V8.5a.75.75 0 0 1 1.5 0v1.75zM8 7a1 1 0 1 1 0-2 1 1 0 0 1 0 2z" fill="#3E6AE1"></path>
  </symbol>
  <symbol id="tds-icon-status-warning" viewBox="0 0 24 24" xmlns="http://www.w3.org/2000/svg">
    <circle fill="#FFFFFF" cx="12" cy="12" r="6"></circle>
    <path d="M21.586 16.476 14.591 4.498c-1.158-1.983-4.024-1.983-5.182 0L2.414 16.476c-1.169 2 .274 4.513 2.59 4.513h13.992c2.316 0 3.759-2.513 2.59-4.513zM11.25 9.73a.75.75 0 0 1 1.5 0v3.5a.75.75 0 0 1-1.5 0v-3.5zm.75 7.25a1 1 0 1 1 0-2 1 1 0 0 1 0 2z" fill="#FBB01B"></path>
  </symbol>
  <symbol id="tds-icon-status-warning-small" viewBox="0 0 16 16" xmlns="http://www.w3.org/2000/svg">
    <circle fill="#FFFFFF" cx="8" cy="8" r="3"></circle>
    <path d="M13.717 10.346 9.77 3.586c-.791-1.353-2.749-1.353-3.54 0l-3.947 6.76c-.798 1.366.187 3.083 1.77 3.083h7.895c1.582 0 2.567-1.717 1.77-3.083zM7.25 6.25a.75.75 0 0 1 1.5 0V8a.75.75 0 0 1-1.5 0V6.25zm.75 5a1 1 0 1 1 0-2 1 1 0 0 1 0 2z" fill="#FBB01B"></path>
  </symbol>
  <symbol id="tds-icon-status-success" viewBox="0 0 24 24" xmlns="http://www.w3.org/2000/svg">
    <circle fill="#FFFFFF" cx="12" cy="12" r="6"></circle>
    <path d="M12 2C6.477 2 2 6.477 2 12s4.477 10 10 10 10-4.477 10-10S17.523 2 12 2zm4.78 8.284-5.491 5.492a.75.75 0 0 1-1.061 0L7.47 13.018a.75.75 0 1 1 1.06-1.061l2.228 2.229 4.962-4.962a.75.75 0 1 1 1.06 1.06z" fill="#12BB00"></path>
  </symbol>
  <symbol id="tds-icon-status-success-small" viewBox="0 0 16 16" xmlns="http://www.w3.org/2000/svg">
    <circle fill="#FFFFFF" cx="8" cy="8" r="3"></circle>
    <path d="M8 2a6 6 0 1 0 0 12A6 6 0 0 0 8 2zm2.78 5.268-2.875 2.875a.747.747 0 0 1-1.06 0L5.22 8.518a.75.75 0 1 1 1.06-1.061l1.095 1.095L9.72 6.207a.75.75 0 1 1 1.06 1.06z" fill="#12BB00"></path>
  </symbol>
  <symbol id="tds-icon-success" viewBox="0 0 24 24" xmlns="http://www.w3.org/2000/svg">
    <path d="M12 2C6.477 2 2 6.477 2 12s4.477 10 10 10 10-4.477 10-10S17.523 2 12 2zm0 18.5c-4.687 0-8.5-3.813-8.5-8.5S7.313 3.5 12 3.5c4.687 0 8.5 3.813 8.5 8.5s-3.813 8.5-8.5 8.5zm4.78-11.276a.75.75 0 0 1 0 1.06l-5.49 5.492a.75.75 0 0 1-1.061 0l-2.76-2.758a.75.75 0 1 1 1.061-1.061l2.229 2.229 4.96-4.962a.75.75 0 0 1 1.061 0z" fill="#393C41"></path>
  </symbol>
  <symbol id="tds-icon-success--filled" viewBox="0 0 24 24" xmlns="http://www.w3.org/2000/svg">
    <path d="M12 2C6.477 2 2 6.477 2 12s4.477 10 10 10 10-4.477 10-10S17.523 2 12 2zm4.78 8.284-5.491 5.492a.75.75 0 0 1-1.061 0L7.47 13.018a.75.75 0 1 1 1.06-1.061l2.228 2.229 4.962-4.962a.75.75 0 1 1 1.06 1.06z" fill="#393C41"></path>
  </symbol>
  <symbol id="tds-icon-success-small" viewBox="0 0 16 16" xmlns="http://www.w3.org/2000/svg">
    <path d="M8 2a6 6 0 1 0 0 12A6 6 0 0 0 8 2zm0 10.5c-2.481 0-4.5-2.019-4.5-4.5S5.519 3.5 8 3.5s4.5 2.019 4.5 4.5-2.019 4.5-4.5 4.5zm2.78-6.293a.75.75 0 0 1 0 1.06l-2.875 2.876a.748.748 0 0 1-1.06 0L5.22 8.518a.75.75 0 1 1 1.06-1.061l1.095 1.095L9.72 6.207a.75.75 0 0 1 1.06 0z" fill="#393C41"></path>
  </symbol>
  <symbol id="tds-icon-success-small--filled" viewBox="0 0 16 16" xmlns="http://www.w3.org/2000/svg">
    <path d="M8 2a6 6 0 1 0 0 12A6 6 0 0 0 8 2zm2.78 5.268-2.875 2.875a.747.747 0 0 1-1.06 0L5.22 8.518a.75.75 0 1 1 1.06-1.061l1.095 1.095L9.72 6.207a.75.75 0 1 1 1.06 1.06z" fill="#393C41"></path>
  </symbol>
  <symbol id="tds-icon-trash" viewBox="0 0 24 24" xmlns="http://www.w3.org/2000/svg">
    <path d="M19.75 5h-3.5V3.75c0-.965-.785-1.75-1.75-1.75h-5c-.965 0-1.75.785-1.75 1.75V5h-3.5a.75.75 0 0 0 0 1.5H5v13A2.5 2.5 0 0 0 7.5 22h9a2.5 2.5 0 0 0 2.5-2.5v-13h.75a.75.75 0 0 0 0-1.5zM9.25 3.75a.25.25 0 0 1 .25-.25h5a.25.25 0 0 1 .25.25V5h-5.5V3.75zM17.5 19.5c0 .551-.449 1-1 1h-9c-.551 0-1-.449-1-1v-13h11v13zm-7-9.75v7.5a.75.75 0 0 1-1.5 0v-7.5a.75.75 0 0 1 1.5 0zm4.5 0v7.5a.75.75 0 0 1-1.5 0v-7.5a.75.75 0 0 1 1.5 0z" fill="#393C41"></path>
  </symbol>
  <symbol id="tds-icon-trash--filled" viewBox="0 0 24 24" xmlns="http://www.w3.org/2000/svg">
    <path d="M19.75 5h-3.5V3.75c0-.965-.785-1.75-1.75-1.75h-5c-.965 0-1.75.785-1.75 1.75V5h-3.5a.75.75 0 0 0 0 1.5H5v13A2.5 2.5 0 0 0 7.5 22h9a2.5 2.5 0 0 0 2.5-2.5v-13h.75a.75.75 0 0 0 0-1.5ZM9.25 3.75a.25.25 0 0 1 .25-.25h5a.25.25 0 0 1 .25.25V5h-5.5V3.75Zm1.25 13.5a.75.75 0 0 1-1.5 0v-7.5a.75.75 0 0 1 1.5 0v7.5Zm4.5 0a.75.75 0 0 1-1.5 0v-7.5a.75.75 0 0 1 1.5 0v7.5Z" fill="#393C41"></path>
  </symbol>
  <symbol id="tds-icon-upload" viewBox="0 0 24 24" xmlns="http://www.w3.org/2000/svg">
    <path d="M20 21.27a.75.75 0 0 1-.75.75H4.75a.75.75 0 0 1 0-1.5h14.5a.75.75 0 0 1 .75.75zM7.53 8.3l3.72-3.72v12.67a.75.75 0 0 0 1.5 0V4.58l3.72 3.72a.747.747 0 0 0 1.06 0 .75.75 0 0 0 0-1.06l-5-5a.75.75 0 0 0-1.06 0l-5 5A.75.75 0 1 0 7.53 8.3z" fill="#393C41"></path>
  </symbol>
  <symbol id="tds-icon-upload--filled" viewBox="0 0 24 24" xmlns="http://www.w3.org/2000/svg">
    <path d="M13 17a1 1 0 1 1-2 0V5.414L7.957 8.457a1 1 0 0 1-1.414-1.414l4.75-4.75a1 1 0 0 1 1.414 0l4.75 4.75a1 1 0 0 1-1.414 1.414L13 5.414V17Zm-8 3a1 1 0 1 0 0 2h14a1 1 0 1 0 0-2H5Z" fill="#393C41"></path>
  </symbol>
  <symbol id="tds-icon-upload-small" viewBox="0 0 16 16" xmlns="http://www.w3.org/2000/svg">
    <path d="M3.75 12.5a.75.75 0 0 0 0 1.5h8.5a.75.75 0 0 0 0-1.5Zm3.5-2.25a.75.75 0 0 0 1.5 0V4.31l1.72 1.72a.75.75 0 1 0 1.06-1.06l-3-3a.75.75 0 0 0-1.06 0l-3 3a.75.75 0 0 0 1.06 1.06l1.72-1.72Z" fill="#393C41"></path>
  </symbol>
  <symbol id="tds-icon-upload-small--filled" viewBox="0 0 16 16" xmlns="http://www.w3.org/2000/svg">
    <path d="M7.25 10.25a.75.75 0 0 0 1.5 0V4.31l1.72 1.72a.75.75 0 1 0 1.06-1.06l-3-3a.75.75 0 0 0-1.06 0l-3 3a.75.75 0 0 0 1.06 1.06l1.72-1.72v5.94Zm-3.5 2.25a.75.75 0 0 0 0 1.5h8.5a.75.75 0 0 0 0-1.5h-8.5Z" fill="#393C41"></path>
  </symbol>
  <symbol id="tds-icon-user" viewBox="0 0 24 24" xmlns="http://www.w3.org/2000/svg">
    <path d="M12 12a4.5 4.5 0 1 0 0-9 4.5 4.5 0 0 0 0 9Zm0-7.5c1.654 0 3 1.346 3 3s-1.346 3-3 3-3-1.346-3-3 1.346-3 3-3Zm7.97 14.617C19.315 15.81 16.037 13.5 12 13.5s-7.313 2.31-7.97 5.617c-.09.45.029.915.325 1.277a1.66 1.66 0 0 0 1.29.606h12.71c.503 0 .973-.22 1.29-.606.296-.362.416-.827.326-1.277Zm-1.615.383H5.645c-.061 0-.107-.03-.145-.09C5.922 17.286 8.137 15 12 15s6.078 2.286 6.485 4.441a.17.17 0 0 1-.13.059Z" fill="#393C41"></path>
  </symbol>
  <symbol id="tds-icon-user--filled" viewBox="0 0 24 24" xmlns="http://www.w3.org/2000/svg">
    <path d="M16.5 7.5a4.5 4.5 0 1 1-9 0 4.5 4.5 0 0 1 9 0Zm-4.5 6c4.037 0 7.314 2.31 7.971 5.617.089.45-.03.916-.327 1.277a1.66 1.66 0 0 1-1.29.606H5.646a1.66 1.66 0 0 1-1.29-.606 1.535 1.535 0 0 1-.326-1.276C4.686 15.81 7.963 13.5 12 13.5Z" fill="#393C41"></path>
  </symbol>
  <symbol id="tds-icon-warning" viewBox="0 0 24 24" xmlns="http://www.w3.org/2000/svg">
    <path d="M21.586 16.476 14.591 4.498c-1.158-1.983-4.024-1.983-5.182 0L2.414 16.476c-1.169 2 .274 4.513 2.59 4.513h13.992c2.316 0 3.759-2.513 2.59-4.513zM11.25 9.73a.75.75 0 0 1 1.5 0v3.5a.75.75 0 0 1-1.5 0v-3.5zm.75 7.25a1 1 0 1 1 0-2 1 1 0 0 1 0 2z" fill="#393C41"></path>
  </symbol>
  <symbol id="tds-icon-warning--filled" viewBox="0 0 24 24" xmlns="http://www.w3.org/2000/svg">
    <path d="M21.586 16.476 14.591 4.498c-1.158-1.983-4.024-1.983-5.182 0L2.414 16.476c-1.169 2 .274 4.513 2.59 4.513h13.992c2.316 0 3.759-2.513 2.59-4.513zM11.25 9.73a.75.75 0 0 1 1.5 0v3.5a.75.75 0 0 1-1.5 0v-3.5zm.75 7.25a1 1 0 1 1 0-2 1 1 0 0 1 0 2z" fill="#393C41"></path>
  </symbol>
  <symbol id="tds-icon-warning-small" viewBox="0 0 16 16" xmlns="http://www.w3.org/2000/svg">
    <path d="M13.717 10.346 9.77 3.586c-.791-1.353-2.749-1.353-3.54 0l-3.947 6.76c-.798 1.366.187 3.083 1.77 3.083h7.895c1.582 0 2.567-1.717 1.77-3.083zM7.25 6.25a.75.75 0 0 1 1.5 0V8a.75.75 0 0 1-1.5 0V6.25zm.75 5a1 1 0 1 1 0-2 1 1 0 0 1 0 2z" fill="#393C41"></path>
  </symbol>
  <symbol id="tds-icon-warning-small--filled" viewBox="0 0 16 16" xmlns="http://www.w3.org/2000/svg">
    <path d="M13.717 10.346 9.77 3.586c-.791-1.353-2.749-1.353-3.54 0l-3.947 6.76c-.798 1.366.187 3.083 1.77 3.083h7.895c1.582 0 2.567-1.717 1.77-3.083zM7.25 6.25a.75.75 0 0 1 1.5 0V8a.75.75 0 0 1-1.5 0V6.25zm.75 5a1 1 0 1 1 0-2 1 1 0 0 1 0 2z" fill="#393C41"></path>
  </symbol>
  <symbol id="tds-icon-zip" viewBox="0 0 24 24" xmlns="http://www.w3.org/2000/svg">
    <path d="m19.413 8.403-5.827-5.818A2 2 0 0 0 12.173 2H6.5A2.5 2.5 0 0 0 4 4.5v15A2.5 2.5 0 0 0 6.5 22h11a2.5 2.5 0 0 0 2.5-2.5V9.818a2 2 0 0 0-.587-1.415zM18.5 19.5c0 .551-.449 1-1 1H9V19H7.5a.5.5 0 0 0-.5.5v1h-.5c-.551 0-1-.449-1-1v-15c0-.551.449-1 1-1H7v1a.5.5 0 0 0 .5.5H9V3.5h3.173c.133 0 .258.052.353.146l5.827 5.818c.095.095.147.22.147.354V19.5zM9 7V5h1.5a.5.5 0 0 1 .5.5v1a.5.5 0 0 1-.5.5H9zM7.5 7H9v2H7.5a.5.5 0 0 1-.5-.5v-1a.5.5 0 0 1 .5-.5zM9 11V9h1.5a.5.5 0 0 1 .5.5v1a.5.5 0 0 1-.5.5H9zm-1.5 0H9v2H7.5a.5.5 0 0 1-.5-.5v-1a.5.5 0 0 1 .5-.5zM9 15v-2h1.5a.5.5 0 0 1 .5.5v1a.5.5 0 0 1-.5.5H9zm-1.5 0H9v2H7.5a.5.5 0 0 1-.5-.5v-1a.5.5 0 0 1 .5-.5zm3 4H9v-2h1.5a.5.5 0 0 1 .5.5v1a.5.5 0 0 1-.5.5z" fill="#393C41"></path>
  </symbol>
  <symbol id="tds-icon-zip--filled" viewBox="0 0 24 24" xmlns="http://www.w3.org/2000/svg">
    <path d="M7 19.5v1a.5.5 0 0 0 .5.5H9v1H6.5A2.5 2.5 0 0 1 4 19.5v-15A2.5 2.5 0 0 1 6.5 2H9v1H7.5a.5.5 0 0 0-.5.5v1a.5.5 0 0 0 .5.5H9v2H7.5a.5.5 0 0 0-.5.5v1a.5.5 0 0 0 .5.5H9v2H7.5a.5.5 0 0 0-.5.5v1a.5.5 0 0 0 .5.5H9v2H7.5a.5.5 0 0 0-.5.5v1a.5.5 0 0 0 .5.5H9v2H7.5a.5.5 0 0 0-.5.5Zm2-.5v2h1.5a.5.5 0 0 1 .5.5v.5h6.5a2.5 2.5 0 0 0 2.5-2.5V9.818a2 2 0 0 0-.587-1.415l-5.827-5.818A2 2 0 0 0 12.172 2H11l.001.5a.5.5 0 0 1-.5.5H9v2h1.5a.5.5 0 0 1 .5.5v1a.5.5 0 0 1-.5.5H9v2h1.5a.5.5 0 0 1 .5.5v1a.5.5 0 0 1-.5.5H9v2h1.5a.5.5 0 0 1 .5.5v1a.5.5 0 0 1-.5.5H9v2h1.5a.5.5 0 0 1 .5.5v1a.5.5 0 0 1-.5.5H9Z" fill="#393C41"></path>
  </symbol>
</svg>