<svg xmlns:xlink="http://www.w3.org/1999/xlink" xmlns="http://www.w3.org/2000/svg" viewBox="0 0 4 16" class="tcl-badge-speedometer__needle" fill="var(--tds-color--secondary)" width="4"  height="16" >
      <path style="" d="m 3.9966676,14.119499 c 0,0.01426 0.00178,0.02809 0.00178,0.04236 a 1.8542546,1.8030219 0 0 1 -0.2773389,0.919658 1.8986998,1.8462391 0 0 1 -0.4084515,0.485329 c -0.3133387,0.261032 -0.7013456,0.40192 -1.1324642,0.42569 a 2.188927,2.1284474 0 0 1 -0.2102259,0.0073 c -0.042667,-4.32e-4 -0.084891,-0.0048 -0.1271133,-0.0078 a 2.0587025,2.001821 0 0 1 -0.4920101,-0.09415 2.0102572,1.9547142 0 0 1 -0.48178617,-0.210468 1.7991425,1.7494325 0 0 1 -0.7644577,-0.967201 1.8471433,1.7961071 0 0 1 -0.1035575,-0.61671 c 0,-0.0086 0.00134,-0.01728 0.00178,-0.02593 -4.444e-4,-0.02636 -0.003560001,-0.05143 -0.002660001,-0.07822 0,-0.01599 8.8890101e-4,-0.03155 0.002660001,-0.04711 L 1.4015113,0.54108535 C 1.4330673,0.23294635 1.7112944,-0.00129065 2.0428558,5.3517167e-6 2.3735282,8.7035172e-4 2.6508663,0.23813235 2.6815336,0.54670335 L 3.9975564,14.011024 c 0.00266,0.02247 0.00266,0.04495 0.00222,0.06699 -4.444e-4,0.01426 -0.00266,0.02766 -0.00311,0.04148 z" fill="#F4F4F4" stroke-width="0.438269px"></path>
    </svg>