<svg xmlns:xlink="http://www.w3.org/1999/xlink" width="28" height="26" xmlns="http://www.w3.org/2000/svg" class="tw-chat--avaya-chat__image"><g fill="#171A20"><path d="M23.8.85H4.2A3.85 3.85 0 00.35 4.7v12.6l.007.235A3.85 3.85 0 004.2 21.15h3.15v2.859c0 .332.117.653.33.907l.122.13c.515.478 1.317.51 1.87.047l4.709-3.943H23.8a3.85 3.85 0 003.85-3.85V4.7A3.85 3.85 0 0023.8.85zM4.2 2.95h19.6c.966 0 1.75.784 1.75 1.75v12.6a1.75 1.75 0 01-1.75 1.75h-9.927a.7.7 0 00-.45.163L9.45 22.54v-2.79a.7.7 0 00-.7-.7H4.2a1.75 1.75 0 01-1.75-1.75V4.7c0-.966.784-1.75 1.75-1.75z" fill="#171A20"></path><path d="M14 9.6a1.4 1.4 0 110 2.8 1.4 1.4 0 010-2.8zm-5.6 0a1.4 1.4 0 110 2.8 1.4 1.4 0 010-2.8zm11.2 0a1.4 1.4 0 110 2.8 1.4 1.4 0 010-2.8z" fill="#171A20"></path></g></svg>