<svg xmlns:xlink="http://www.w3.org/1999/xlink" class="tw-chat--tds-icon tw-chat--tds-icon-logo" viewBox="0 0 160 160" xmlns="http://www.w3.org/2000/svg" width="160"  height="160" ><g transform="translate(30 30)" fill="#5C5E62"><path d="M50 99.8l14-78.7c13.3 0 17.5 1.5 18.1 7.4 0 0 8.9-3.3 13.5-10.1C78 10.3 60.3 9.9 60.3 9.9L50 22.5 39.7 9.9s-17.7.4-35.3 8.5c4.5 6.8 13.5 10.1 13.5 10.1.6-6 4.8-7.4 18.1-7.4l14 78.7z" fill="#5C5E62"></path><path d="M50 6.3c14.2-.1 30.5 2.2 47.2 9.5 2.2-4 2.8-5.8 2.8-5.8C81.8 2.7 64.7.3 50 .2 35.3.3 18.2 2.7 0 10c0 0 .8 2.2 2.8 5.8 16.7-7.3 33-9.6 47.2-9.5z" fill="#5C5E62"></path></g></svg>