<svg xmlns:xlink="http://www.w3.org/1999/xlink" xmlns="http://www.w3.org/2000/svg" x="0px" y="0px" viewBox="0 0 1225 562" class="tcl-carousel-v2__range-path" preserveAspectRatio="xMidYMid slice" xml:space="preserve" width="1225"  height="562" >
        <path d="M436.3,488.4l8.7-17.7l-0.4-3.4l0.4-7.7l-2-9.7l-1.2-3.9l0.6-11.6l-0.8-4.6l1.8-2.5l2.9-6l9.2-27l2.1-5.2l5.1-6.9l0.9-5.2l5.3-6.3l5.1-9.6l4.3-2.3l3.7-3.3l6.2-2.9l2-4l2.9-1.3l3.9-12.7l8.7-17.7l2.2-2.3l2.5-12.5l11.7-22.3l1.6-6.2l2.1-8V263v-29.5l1-3.2l1.4-2.8v-4.3l-5-14.9l2.9-5.6l0.6-8.8l22.2-15.3l1.5-1.7l7.4-14.1l2.9-19.9l-0.6-1.6l-1.8-3.4l-0.2-3.9c0,0,3-4.9,3.4-5.2c0.3-0.2,0.9-2.8,0.9-2.8l3.3-6.7V85.4l-1.6-2.5l0.4-2.9l2.5-3.1l1.4-3.8" fill="none" stroke="#000000" style="stroke-dasharray: 464.01, 464.01; stroke-dashoffset: 464.01;" stroke-width="4px"></path>
        <g class="tooltip" transform="translate(436.29998779296875,488.3999938964844)">
          <circle fill="#231F20" cx="0" cy="0.8" r="4.4"></circle>
          <g>
            <rect x="-38.2" y="5.5" fill="#EC1C24" width="76.3" height="22.1"></rect>
            <rect x="-4.4" y="1.7" transform="matrix(0.7071 -0.7071 0.7071 0.7071 -4.3565 1.8045)" fill="#EC1C24" width="8.9" height="8.9"></rect>
          </g>
          <text text-anchor="middle" transform="matrix(1 0 0 1 0 21.2519)" fill="#FFFFFF" font-family="Gotham Bold" font-size="13px">0 Miles</text>
        </g>
      </svg>