<svg xmlns:xlink="http://www.w3.org/1999/xlink" class="tw-chat--tds-icon" fill="none" viewBox="0 0 34 34" xmlns="http://www.w3.org/2000/svg" width="34"  height="34" ><path d="M 23.589 23.09 C 23.896 23.393 23.896 23.882 23.589 24.185 C 23.436 24.336 23.235 24.412 23.034 24.412 C 22.833 24.412 22.632 24.336 22.48 24.185 L 16.754 18.536 L 11.03 24.185 C 10.876 24.336 10.676 24.412 10.474 24.412 C 10.273 24.412 10.073 24.336 9.919 24.185 C 9.613 23.882 9.613 23.393 9.919 23.09 L 15.644 17.44 L 9.919 11.788 C 9.613 11.486 9.613 10.996 9.919 10.694 C 10.226 10.391 10.723 10.391 11.03 10.694 L 16.754 16.344 L 22.48 10.694 C 22.786 10.391 23.282 10.391 23.589 10.694 C 23.896 10.996 23.896 11.486 23.589 11.788 L 17.864 17.44 L 23.589 23.09 Z" fill="#171A20"></path></svg>