<svg xmlns:xlink="http://www.w3.org/1999/xlink" xmlns="http://www.w3.org/2000/svg" viewBox="0 0 28 28" width="28"  height="28" ><defs><symbol id="tcl-badge-wifi" data-name="WIFI" viewBox="0 0 22.59 18.4" xmlns="http://www.w3.org/2000/svg">
    <path d="M11.26 0c.41-.01.86.01 1.3.04.36.03.71.07 1.06.1.54.06 1.07.15 1.6.26 1.32.27 2.59.68 3.82 1.22 1.05.46 2.05 1.01 3.01 1.65.26.17.43.4.5.7.07.3.02.58-.11.85-.04.08-.08.16-.11.24-.06.14-.16.24-.29.32a.97.97 0 0 1-.78.08c-.19-.05-.36-.14-.53-.25a16.244 16.244 0 0 0-6.83-2.65c-.88-.13-1.76-.19-2.64-.19a17.343 17.343 0 0 0-3.86.45c-1.58.37-3.08.95-4.5 1.75-.34.22-.68.43-1.01.65-.26.17-.54.24-.85.21-.32-.04-.6-.18-.81-.42a.902.902 0 0 1-.21-.48c-.08-.53.09-.97.53-1.28C2.12 2.15 3.83 1.35 5.66.8 6.45.56 7.25.38 8.07.25A20.298 20.298 0 0 1 11.26 0z" fill="#171A20"></path>
    <path d="M11.03 4.78c.7 0 1.2.03 1.71.08 1.62.17 3.16.61 4.62 1.35.55.28 1.08.61 1.59.96.45.31.62.88.42 1.4-.03.09-.08.17-.12.25a.53.53 0 0 1-.21.21c-.31.18-.64.23-.99.11-.13-.04-.25-.1-.37-.18-1.06-.73-2.22-1.23-3.47-1.54-.53-.13-1.07-.22-1.61-.27-.63-.07-1.27-.08-1.9-.05-1.84.1-3.56.59-5.15 1.54-.18.11-.36.23-.54.35-.48.34-1.13.26-1.55-.11a.918.918 0 0 1-.3-.54 1.254 1.254 0 0 1 .54-1.33c.95-.66 1.97-1.16 3.07-1.52.73-.25 1.48-.42 2.23-.54.74-.11 1.48-.16 2.03-.17zM11.23 9.47c1.86.03 3.41.61 4.73 1.79.24.22.4.48.44.8.06.41-.07.75-.41 1-.13.1-.28.17-.44.22-.21.07-.41.06-.62 0-.21-.06-.4-.16-.57-.31-.59-.51-1.27-.87-2.04-1.04-1.06-.24-2.08-.1-3.06.39-.39.2-.75.45-1.08.75-.14.12-.29.22-.47.26-.29.07-.57.02-.84-.11l-.15-.09c-.5-.34-.58-.85-.43-1.3.07-.21.19-.4.36-.54.74-.64 1.57-1.14 2.5-1.46.45-.15.92-.26 1.4-.31.27-.02.52-.04.68-.05zM9.76 16.84c-.01-.79.63-1.56 1.56-1.56.88 0 1.56.7 1.56 1.56 0 .92-.75 1.57-1.56 1.56-.88 0-1.56-.73-1.56-1.56z" fill="#171A20"></path>
  </symbol></defs>
      <use href="#tcl-badge-wifi"></use>
    </svg>