<svg xmlns:xlink="http://www.w3.org/1999/xlink" xmlns="http://www.w3.org/2000/svg" viewBox="0 0 42 42" width="42"  height="42" ><defs><symbol id="tcl-badge-autopilot" data-name="Autopilot" viewBox="0 0 60 59.4" xmlns="http://www.w3.org/2000/svg">
    <path fill="none" d="M104.2-1968.4h1982.1v3996H130.2c1.6-.5 3.1-1.2 4.7-1.3 13.6-.8 27.3-1.4 40.9-2.2 77.2-4.6 153.9-14.2 230-28 128.2-23.2 253-58.6 373.9-107 338.4-135.4 621-346.1 845-633.5 259.5-332.9 399.2-711.2 421-1132.8 4.7-91.3 2.2-182.6-5.9-273.7-5.5-61.7-14-123.1-25.2-184.1-20.4-111-49.8-219.5-88.9-325.3-106.2-287.3-269.4-537.6-490.1-750-218.7-210.4-472.5-363-760.7-458.2-98.2-32.4-198.4-57.1-300.6-73.1-48-7.5-96.4-13.3-144.7-18.1-38.1-3.8-76.5-4.8-114.7-7.1-3.5-.3-7.1-1.1-10.7-1.6zM-71.8 2027.6h-1937.9v-3996H-45.8c-3.6.5-7.2 1.4-10.8 1.5-48.6 1.6-97.1 5.1-145.6 10.1-74.9 7.8-149.2 19.9-222.8 36.1-143 31.5-280.9 78.2-413.5 140.4-233 109.3-437.4 258-613.1 446-157.6 168.6-282.2 359-373.8 570.8-67.8 156.7-114.2 319.6-140.2 488.3-12 78.1-19.4 156.7-21.8 235.7-3.2 102.7.6 205.2 12.9 307.4 8.9 73.8 21.5 146.9 38.4 219.3 50.3 215.7 134.3 417.4 252.1 605 121.8 194.1 272.6 362.3 452.1 504.7 163.1 129.4 342.2 230.7 537.1 304 110.3 41.5 223.5 72.7 339.3 94.1 51.1 9.4 102.5 17.2 154.3 22.1 39.8 3.7 79.7 5.9 119.6 8.8 3.4.3 6.6 1.2 9.8 1.7z"></path>
    <path fill="#171A20" d="M28.5 59.4h-.1c-.6 0-1.2-.1-1.8-.1-.8-.1-1.5-.2-2.3-.3-1.7-.3-3.4-.8-5-1.4-2.9-1.1-5.6-2.6-8-4.5-2.7-2.1-4.9-4.6-6.7-7.5-1.7-2.8-3-5.8-3.7-9-.3-1.1-.4-2.2-.6-3.3-.3-1.6-.3-3.1-.3-4.6 0-1.2.1-2.3.3-3.5.4-2.5 1.1-4.9 2.1-7.3 1.4-3.1 3.2-6 5.6-8.5 2.6-2.8 5.6-5 9.1-6.6 2-.9 4-1.6 6.1-2.1 1.1-.2 2.2-.4 3.3-.5.8-.1 1.5-.2 2.2-.2H31.3c.6 0 1.1 0 1.7.1.7.1 1.4.2 2.2.3 1.5.2 3 .6 4.5 1.1C44 2.9 47.8 5.2 51 8.3c3.3 3.2 5.7 6.9 7.3 11.1.6 1.6 1 3.2 1.3 4.8.2.9.3 1.8.4 2.7.1 1.4.2 2.7.1 4.1-.3 6.3-2.4 11.9-6.3 16.8-3.3 4.3-7.5 7.4-12.6 9.4-1.8.7-3.7 1.2-5.6 1.6-1.1.2-2.3.3-3.4.4h-.7c-1 .2-2 .2-3 .2zm1.3-2c.8 0 1.5-.1 2.3-.1 1-.1 2-.2 3-.4 2-.4 3.9-.9 5.8-1.7 4.2-1.8 7.8-4.5 10.7-8 3.7-4.6 5.8-9.8 6.2-15.8.1-1.3.1-2.7 0-4-.1-1-.2-2-.4-3-.5-2.3-1.2-4.6-2.2-6.7-2.5-5.1-6.2-9.1-11.1-12-3.4-2-7-3.2-10.9-3.6-1.1-.1-2.1-.1-3.1-.1-1.8 0-3.7.1-5.5.4-1.8.3-3.6.8-5.3 1.5-4.8 2-8.7 5-11.9 9.1-3.5 4.6-5.4 9.9-5.6 15.7-.1 1.5 0 3 .2 4.6.1 1.1.3 2.2.6 3.2 1.4 5.3 4.1 9.9 8.1 13.6 2.8 2.6 5.9 4.5 9.5 5.7 2.3.8 4.7 1.3 7.1 1.5.8.1 1.7.1 2.5.1z"></path>
    <path fill="none" d="M16.9 1896.7c-55.7-1.3-111.4-2.9-166.9-7.4-164.3-13.1-324.1-47.1-479.2-103-238.3-85.8-450.8-214.4-636.4-386.6-271.3-251.8-454.2-556.8-546.5-915.7-18.4-71.4-31.8-143.7-41.3-216.7-13.2-101.7-18.1-203.9-13.8-306.3 16.4-391.1 142.3-743.6 378.9-1055.3 210.2-276.9 477.8-479.8 800.5-609.6 115.9-46.6 235.7-80.2 358.7-102.2 122.1-21.8 245.2-30 369.2-28.7 65.7.7 131.3 3.6 196.6 10.8 260.9 28.7 505.5 108.2 732 240.9 329.4 193.1 578.4 461.5 746.8 804.2 70.6 143.6 120.5 294.4 151.2 451.5 13.1 67.1 22.4 134.7 28.2 202.8 7.6 90.2 9 180.5 2.9 270.7-26.9 397.5-166.1 751.3-417.3 1060.2-194.5 239.2-434.7 419-718.1 540.7-124.7 53.5-254 92.3-387.5 116.9-67.6 12.5-135.5 21.9-204.1 25.9-51.4 3-102.7 4.6-153.9 6.9zm-152-1094.8c.5.2 1.5.8 2.4.8 381.6.1 763.3.2 1144.9.2 2.6 0 5.3-.4 7.9-.6.3 0 .6-.3.8-.6.2-.2.4-.5.5-.5V509.6H344.2c3.2-3 4.7-4.6 6.3-5.9C435 437 519.6 370.5 604 303.6c50.9-40.4 102-80.6 151.9-122.2 49.4-41.3 95.5-86.2 136-136.5 42.1-52.1 75.4-109 94.6-173.5 25.1-84.6 29.1-170.6 13.7-257.2-25.3-141.9-101.7-247.7-228.8-316.1-80.2-43.1-167-61.8-257.2-66.1-42-2-83.9-1-125.8 3.4-51.9 5.4-102.6 16-151.8 33.7C162.1-704.1 97-662.3 38.1-610-15.4-562.4-62.3-508.8-107-453.1c-1 1.2-1.6 2.7-2.5 4.3 79.8 66.5 159.1 132.6 239 199.1 2.7-3.2 5.1-5.9 7.5-8.6 18.5-21.4 36.6-43.2 55.6-64.2 29.1-32.2 60.1-62.4 95.7-87.6 74.9-53.1 156.9-66.3 244.2-39.8 68.6 20.8 111.4 67.9 125.2 138.6 12 61.2 3.2 120.1-26.2 175.4-18.9 35.6-44.2 66.6-71.8 95.7-51.8 54.8-108.6 104.5-166.6 152.5-133.2 110.3-267.3 219.6-401 329.3-36.3 29.8-72.6 59.6-109 89.4-3.6 3-6.7 5.6-7 11.2-1.7 40.6-3.9 81.2-5.9 121.8-1.7 34.3-3.7 68.6-5.2 102.8-.5 11.6-.1 23.2-.1 35.1zM-777.3-422.4c.6 1.4.8 1.7.9 2.1.1.3.2.6.2 1 .1.7.1 1.3.1 2v1214c0 .7 0 1.3.1 2 0 .3 0 .7.1 1s.2.6.3 1c.1.3.2.7.3.9.2.2.5.4.8.6 16.3 2.1 350.4 1.3 357.3-.9 2.1-17.5 1.2-1562.4-1.2-1570.1h-8.7c-74 0-148-.1-222 .1-5.6 0-11.3 1-16.6 2.6-144.4 42.4-288.8 84.9-433.2 127.4-3.1.9-6.2 2.1-10.3 3.4 22.2 93.2 44.3 186 66.5 279.3 89.3-22.4 177.1-44.4 265.4-66.4z"></path>
    <path fill="#171A20" d="M27.5 41.2v-.5c0-.5.1-1 .1-1.5 0-.6.1-1.2.1-1.8 0-.1.1-.1.1-.2.5-.4 1.1-.9 1.6-1.3 2-1.6 4-3.3 6-4.9.9-.7 1.7-1.5 2.5-2.3.4-.4.8-.9 1.1-1.4.4-.8.6-1.7.4-2.6-.2-1.1-.8-1.8-1.9-2.1-1.3-.4-2.5-.2-3.6.6-.5.4-1 .8-1.4 1.3-.3.3-.6.6-.8 1l-.1.1-3.6-3v-.1c.7-.8 1.4-1.6 2.2-2.3.9-.8 1.8-1.4 3-1.8.7-.3 1.5-.4 2.3-.5.6-.1 1.2-.1 1.9-.1 1.3.1 2.6.3 3.8 1 1.9 1 3 2.6 3.4 4.7.2 1.3.2 2.6-.2 3.8-.3 1-.8 1.8-1.4 2.6-.6.7-1.3 1.4-2 2-.7.6-1.5 1.2-2.3 1.8-1.3 1-2.5 2-3.8 3l-.1.1h10.1v4.3h-.1c-5.9.1-11.5.1-17.3.1.1 0 .1 0 0 0zM18 23c-1.3.3-2.6.7-3.9 1-.3-1.4-.7-2.8-1-4.2.1 0 .1 0 .2-.1 2.1-.6 4.3-1.3 6.4-1.9h3.6v23.3H18V23c0 .1 0 .1 0 0z"></path>
  </symbol></defs>
      <use href="#tcl-badge-autopilot"></use>
    </svg>